<svg width="26" height="26" viewBox="0 0 26 26" fill="none" xmlns="http://www.w3.org/2000/svg">
<rect width="26" height="26" fill="#F5F5F5"/>
<g clip-path="url(#clip0_0_1)">
<rect width="1512" height="2829" transform="translate(-691 -658)" fill="white"/>
<circle cx="13" cy="13" r="12.5" fill="white" stroke="#F4F5F9"/>
<path d="M22.1008 13.2022C22.1008 12.454 22.0388 11.908 21.9048 11.3418H13.1865V14.7189H18.3039C18.2008 15.5581 17.6437 16.822 16.4055 17.6713L16.3882 17.7844L19.1447 19.8771L19.3357 19.8958C21.0897 18.3083 22.1008 15.9727 22.1008 13.2022Z" fill="#4285F4"/>
<path d="M13.1863 22.1011C15.6934 22.1011 17.7982 21.2921 19.3355 19.8968L16.4054 17.6723C15.6212 18.2082 14.5688 18.5823 13.1863 18.5823C10.7308 18.5823 8.64671 16.9949 7.90378 14.8008L7.79489 14.8098L4.9286 16.9838L4.89111 17.0859C6.41808 20.0586 9.55458 22.1011 13.1863 22.1011Z" fill="#34A853"/>
<path d="M7.90401 14.8001C7.70798 14.2339 7.59453 13.6271 7.59453 13.0003C7.59453 12.3734 7.70798 11.7667 7.8937 11.2005L7.8885 11.0799L4.98629 8.87109L4.89133 8.91536C4.26199 10.1489 3.90088 11.5342 3.90088 13.0003C3.90088 14.4664 4.26199 15.8516 4.89133 17.0851L7.90401 14.8001Z" fill="#FBBC05"/>
<path d="M13.1864 7.41903C14.93 7.41903 16.1062 8.15714 16.7769 8.77396L19.3975 6.26639C17.788 4.80028 15.6935 3.90039 13.1864 3.90039C9.55461 3.90039 6.41808 5.94282 4.89111 8.91546L7.89349 11.2006C8.64673 9.0065 10.7308 7.41903 13.1864 7.41903Z" fill="#EB4335"/>
</g>
<defs>
<clipPath id="clip0_0_1">
<rect width="1512" height="2829" fill="white" transform="translate(-691 -658)"/>
</clipPath>
</defs>
</svg>
