<svg width="247" height="26" viewBox="0 0 247 26" fill="none" xmlns="http://www.w3.org/2000/svg">
<path d="M0.184 20V3.2H11.536V6.368H3.688V16.832H11.704V20H0.184ZM1.864 12.968V9.896H10.384V12.968H1.864ZM22.9544 20L19.8104 15.512L18.8504 14.168L13.7144 7.304H17.8424L20.9144 11.648L21.9704 13.088L27.0344 20H22.9544ZM13.6664 20L18.7304 13.064L20.6024 15.296L17.6744 20H13.6664ZM21.8264 14.288L20.0024 12.056L22.7144 7.304H26.7224L21.8264 14.288ZM29.4295 20V7.304H32.8375V20H29.4295ZM31.1095 4.688C30.4535 4.688 29.9415 4.528 29.5735 4.208C29.2055 3.888 29.0215 3.432 29.0215 2.84C29.0215 2.296 29.2055 1.856 29.5735 1.52C29.9575 1.168 30.4695 0.991999 31.1095 0.991999C31.7655 0.991999 32.2775 1.16 32.6455 1.496C33.0135 1.816 33.1975 2.264 33.1975 2.84C33.1975 3.4 33.0055 3.848 32.6215 4.184C32.2535 4.52 31.7495 4.688 31.1095 4.688ZM40.7494 20.24C39.5654 20.24 38.5094 20.048 37.5814 19.664C36.6694 19.264 35.9334 18.72 35.3734 18.032L37.4854 16.208C37.9814 16.736 38.5334 17.12 39.1414 17.36C39.7494 17.584 40.3574 17.696 40.9654 17.696C41.2054 17.696 41.4214 17.672 41.6134 17.624C41.8214 17.56 41.9974 17.48 42.1414 17.384C42.2854 17.272 42.3894 17.144 42.4534 17C42.5334 16.84 42.5734 16.672 42.5734 16.496C42.5734 16.144 42.4294 15.864 42.1414 15.656C41.9814 15.576 41.7334 15.48 41.3974 15.368C41.0614 15.24 40.6294 15.104 40.1014 14.96C39.2854 14.752 38.5894 14.512 38.0134 14.24C37.4534 13.952 37.0054 13.632 36.6694 13.28C36.3814 12.944 36.1574 12.584 35.9974 12.2C35.8534 11.8 35.7814 11.36 35.7814 10.88C35.7814 10.304 35.9094 9.784 36.1654 9.32C36.4214 8.84 36.7734 8.432 37.2214 8.096C37.6854 7.76 38.2134 7.504 38.8054 7.328C39.3974 7.136 40.0214 7.04 40.6774 7.04C41.3334 7.04 41.9734 7.12 42.5974 7.28C43.2214 7.44 43.7974 7.672 44.3254 7.976C44.8694 8.264 45.3414 8.608 45.7414 9.008L43.9174 11.024C43.6294 10.752 43.3014 10.504 42.9334 10.28C42.5814 10.056 42.2134 9.88 41.8294 9.752C41.4454 9.624 41.1014 9.56 40.7974 9.56C40.5254 9.56 40.2774 9.584 40.0534 9.632C39.8454 9.68 39.6694 9.752 39.5254 9.848C39.3814 9.944 39.2694 10.072 39.1894 10.232C39.1254 10.376 39.0934 10.536 39.0934 10.712C39.0934 10.888 39.1334 11.056 39.2134 11.216C39.3094 11.376 39.4374 11.512 39.5974 11.624C39.7734 11.72 40.0294 11.832 40.3654 11.96C40.7174 12.088 41.1894 12.232 41.7814 12.392C42.5494 12.6 43.1974 12.832 43.7254 13.088C44.2694 13.344 44.7014 13.64 45.0214 13.976C45.2934 14.264 45.4934 14.592 45.6214 14.96C45.7494 15.328 45.8134 15.736 45.8134 16.184C45.8134 16.968 45.5894 17.672 45.1414 18.296C44.7094 18.904 44.1094 19.384 43.3414 19.736C42.5734 20.072 41.7094 20.24 40.7494 20.24ZM49.4671 20V4.088H52.8751V20H49.4671ZM47.0911 10.352V7.304H55.4671V10.352H47.0911ZM57.9764 20V7.304H61.3844V20H57.9764ZM59.6564 4.688C59.0004 4.688 58.4884 4.528 58.1204 4.208C57.7524 3.888 57.5684 3.432 57.5684 2.84C57.5684 2.296 57.7524 1.856 58.1204 1.52C58.5044 1.168 59.0164 0.991999 59.6564 0.991999C60.3124 0.991999 60.8244 1.16 61.1924 1.496C61.5604 1.816 61.7444 2.264 61.7444 2.84C61.7444 3.4 61.5524 3.848 61.1684 4.184C60.8004 4.52 60.2964 4.688 59.6564 4.688ZM65.0243 20V7.304H68.2883L68.3843 9.896L67.7123 10.184C67.8883 9.608 68.2003 9.088 68.6483 8.624C69.1123 8.144 69.6643 7.76 70.3043 7.472C70.9443 7.184 71.6163 7.04 72.3203 7.04C73.2803 7.04 74.0803 7.232 74.7203 7.616C75.3763 8 75.8643 8.584 76.1843 9.368C76.5203 10.136 76.6883 11.088 76.6883 12.224V20H73.2803V12.488C73.2803 11.912 73.2003 11.432 73.0403 11.048C72.8803 10.664 72.6323 10.384 72.2963 10.208C71.9763 10.016 71.5763 9.936 71.0963 9.968C70.7123 9.968 70.3523 10.032 70.0163 10.16C69.6963 10.272 69.4163 10.44 69.1763 10.664C68.9523 10.888 68.7683 11.144 68.6243 11.432C68.4963 11.72 68.4323 12.032 68.4323 12.368V20H66.7523C66.3843 20 66.0563 20 65.7683 20C65.4803 20 65.2323 20 65.0243 20ZM85.738 25.52C84.73 25.52 83.738 25.368 82.762 25.064C81.786 24.776 80.994 24.4 80.386 23.936L81.586 21.488C81.906 21.712 82.274 21.912 82.69 22.088C83.106 22.264 83.538 22.4 83.986 22.496C84.45 22.592 84.922 22.64 85.402 22.64C86.234 22.64 86.914 22.512 87.442 22.256C87.986 22 88.394 21.616 88.666 21.104C88.938 20.608 89.074 19.968 89.074 19.184V16.976L89.65 17.096C89.554 17.624 89.29 18.112 88.858 18.56C88.426 18.992 87.882 19.344 87.226 19.616C86.57 19.872 85.898 20 85.21 20C84.026 20 82.978 19.728 82.066 19.184C81.154 18.64 80.434 17.888 79.906 16.928C79.378 15.968 79.114 14.864 79.114 13.616C79.114 12.336 79.37 11.208 79.882 10.232C80.41 9.24 81.122 8.464 82.018 7.904C82.93 7.328 83.962 7.04 85.114 7.04C85.594 7.04 86.05 7.096 86.482 7.208C86.93 7.32 87.338 7.48 87.706 7.688C88.09 7.88 88.426 8.104 88.714 8.36C89.018 8.6 89.266 8.864 89.458 9.152C89.65 9.44 89.77 9.728 89.818 10.016L89.122 10.208L89.218 7.304H92.482V19.04C92.482 20.08 92.33 21 92.026 21.8C91.722 22.6 91.274 23.272 90.682 23.816C90.106 24.376 89.394 24.8 88.546 25.088C87.714 25.376 86.778 25.52 85.738 25.52ZM85.834 17.264C86.506 17.264 87.09 17.112 87.586 16.808C88.098 16.504 88.49 16.08 88.762 15.536C89.034 14.992 89.17 14.352 89.17 13.616C89.17 12.896 89.034 12.264 88.762 11.72C88.49 11.16 88.098 10.728 87.586 10.424C87.09 10.12 86.506 9.968 85.834 9.968C85.178 9.968 84.594 10.128 84.082 10.448C83.586 10.752 83.202 11.176 82.93 11.72C82.658 12.264 82.522 12.896 82.522 13.616C82.522 14.336 82.658 14.976 82.93 15.536C83.202 16.08 83.586 16.504 84.082 16.808C84.594 17.112 85.178 17.264 85.834 17.264ZM107.595 20.24C106.667 20.24 105.867 20.04 105.195 19.64C104.539 19.224 104.027 18.64 103.659 17.888C103.307 17.12 103.131 16.2 103.131 15.128V7.304H106.539V14.576C106.539 15.152 106.635 15.656 106.827 16.088C107.019 16.504 107.291 16.824 107.643 17.048C107.995 17.272 108.427 17.384 108.939 17.384C109.307 17.384 109.651 17.328 109.971 17.216C110.291 17.088 110.563 16.912 110.787 16.688C111.011 16.464 111.187 16.2 111.315 15.896C111.443 15.592 111.507 15.264 111.507 14.912V7.304H114.915V20H111.675L111.555 17.384L112.179 17.096C111.987 17.688 111.667 18.224 111.219 18.704C110.771 19.184 110.235 19.56 109.611 19.832C108.987 20.104 108.315 20.24 107.595 20.24ZM122.617 20.24C121.433 20.24 120.377 20.048 119.449 19.664C118.537 19.264 117.801 18.72 117.241 18.032L119.353 16.208C119.849 16.736 120.401 17.12 121.009 17.36C121.617 17.584 122.225 17.696 122.833 17.696C123.073 17.696 123.289 17.672 123.481 17.624C123.689 17.56 123.865 17.48 124.009 17.384C124.153 17.272 124.257 17.144 124.321 17C124.401 16.84 124.441 16.672 124.441 16.496C124.441 16.144 124.297 15.864 124.009 15.656C123.849 15.576 123.601 15.48 123.265 15.368C122.929 15.24 122.497 15.104 121.969 14.96C121.153 14.752 120.457 14.512 119.881 14.24C119.321 13.952 118.873 13.632 118.537 13.28C118.249 12.944 118.025 12.584 117.865 12.2C117.721 11.8 117.649 11.36 117.649 10.88C117.649 10.304 117.777 9.784 118.033 9.32C118.289 8.84 118.641 8.432 119.089 8.096C119.553 7.76 120.081 7.504 120.673 7.328C121.265 7.136 121.889 7.04 122.545 7.04C123.201 7.04 123.841 7.12 124.465 7.28C125.089 7.44 125.665 7.672 126.193 7.976C126.737 8.264 127.209 8.608 127.609 9.008L125.785 11.024C125.497 10.752 125.169 10.504 124.801 10.28C124.449 10.056 124.081 9.88 123.697 9.752C123.313 9.624 122.969 9.56 122.665 9.56C122.393 9.56 122.145 9.584 121.921 9.632C121.713 9.68 121.537 9.752 121.393 9.848C121.249 9.944 121.137 10.072 121.057 10.232C120.993 10.376 120.961 10.536 120.961 10.712C120.961 10.888 121.001 11.056 121.081 11.216C121.177 11.376 121.305 11.512 121.465 11.624C121.641 11.72 121.897 11.832 122.233 11.96C122.585 12.088 123.057 12.232 123.649 12.392C124.417 12.6 125.065 12.832 125.593 13.088C126.137 13.344 126.569 13.64 126.889 13.976C127.161 14.264 127.361 14.592 127.489 14.96C127.617 15.328 127.681 15.736 127.681 16.184C127.681 16.968 127.457 17.672 127.009 18.296C126.577 18.904 125.977 19.384 125.209 19.736C124.441 20.072 123.577 20.24 122.617 20.24ZM136.134 20.24C134.758 20.24 133.558 19.96 132.534 19.4C131.51 18.84 130.71 18.072 130.134 17.096C129.558 16.12 129.27 15 129.27 13.736C129.27 12.76 129.43 11.864 129.75 11.048C130.07 10.232 130.518 9.528 131.094 8.936C131.67 8.328 132.35 7.864 133.134 7.544C133.934 7.208 134.798 7.04 135.726 7.04C136.59 7.04 137.39 7.2 138.126 7.52C138.862 7.824 139.494 8.264 140.022 8.84C140.566 9.4 140.982 10.064 141.27 10.832C141.558 11.6 141.686 12.44 141.654 13.352L141.63 14.408H131.43L130.878 12.32H138.822L138.438 12.752V12.224C138.406 11.792 138.262 11.4 138.006 11.048C137.766 10.696 137.454 10.424 137.07 10.232C136.686 10.04 136.254 9.944 135.774 9.944C135.07 9.944 134.47 10.08 133.974 10.352C133.494 10.624 133.126 11.024 132.87 11.552C132.614 12.08 132.486 12.72 132.486 13.472C132.486 14.24 132.646 14.904 132.966 15.464C133.302 16.024 133.766 16.464 134.358 16.784C134.966 17.088 135.678 17.24 136.494 17.24C137.054 17.24 137.566 17.152 138.03 16.976C138.494 16.8 138.99 16.496 139.518 16.064L141.15 18.344C140.686 18.76 140.174 19.112 139.614 19.4C139.054 19.672 138.478 19.88 137.886 20.024C137.294 20.168 136.71 20.24 136.134 20.24ZM144.173 20V7.304H147.461L147.581 11.384L147.005 10.544C147.197 9.888 147.509 9.296 147.941 8.768C148.373 8.224 148.877 7.8 149.453 7.496C150.045 7.192 150.661 7.04 151.301 7.04C151.573 7.04 151.837 7.064 152.093 7.112C152.349 7.16 152.565 7.216 152.741 7.28L151.829 11.024C151.637 10.928 151.405 10.848 151.133 10.784C150.861 10.704 150.581 10.664 150.293 10.664C149.909 10.664 149.549 10.736 149.213 10.88C148.893 11.008 148.613 11.2 148.373 11.456C148.133 11.696 147.941 11.984 147.797 12.32C147.669 12.656 147.605 13.024 147.605 13.424V20H144.173ZM165.032 14.48L164.288 11.24C164.816 11.112 165.296 10.968 165.728 10.808C166.176 10.632 166.576 10.448 166.928 10.256C167.28 10.064 167.576 9.848 167.816 9.608C168.072 9.368 168.264 9.104 168.392 8.816C168.536 8.512 168.608 8.192 168.608 7.856C168.608 7.504 168.512 7.192 168.32 6.92C168.128 6.632 167.872 6.416 167.552 6.272C167.232 6.112 166.856 6.032 166.424 6.032C165.864 6.032 165.304 6.232 164.744 6.632C164.2 7.016 163.704 7.624 163.256 8.456L160.904 6.32C161.624 5.232 162.472 4.392 163.448 3.8C164.44 3.192 165.472 2.888 166.544 2.888C167.584 2.888 168.52 3.104 169.352 3.536C170.184 3.952 170.84 4.528 171.32 5.264C171.816 6 172.064 6.824 172.064 7.736C172.064 8.312 171.944 8.88 171.704 9.44C171.464 9.984 171.128 10.504 170.696 11C170.28 11.48 169.784 11.904 169.208 12.272C168.632 12.64 168 12.936 167.312 13.16L167.024 14.48H165.032ZM164.168 18.224C164.168 17.632 164.344 17.152 164.696 16.784C165.048 16.4 165.512 16.208 166.088 16.208C166.712 16.208 167.192 16.384 167.528 16.736C167.864 17.088 168.032 17.584 168.032 18.224C168.032 18.832 167.848 19.328 167.48 19.712C167.128 20.08 166.664 20.264 166.088 20.264C165.48 20.264 165.008 20.088 164.672 19.736C164.336 19.384 164.168 18.88 164.168 18.224Z" fill="#212B36"/>
<path d="M182.575 20V3.2H186.175V16.76H193.783V20H182.575ZM202.085 20.24C200.789 20.24 199.629 19.96 198.605 19.4C197.597 18.824 196.797 18.04 196.205 17.048C195.629 16.056 195.341 14.92 195.341 13.64C195.341 12.36 195.629 11.232 196.205 10.256C196.797 9.264 197.597 8.48 198.605 7.904C199.629 7.328 200.789 7.04 202.085 7.04C203.365 7.04 204.509 7.328 205.517 7.904C206.541 8.48 207.341 9.264 207.917 10.256C208.493 11.232 208.781 12.36 208.781 13.64C208.781 14.92 208.493 16.056 207.917 17.048C207.341 18.04 206.541 18.824 205.517 19.4C204.509 19.96 203.365 20.24 202.085 20.24ZM202.085 17.264C202.709 17.264 203.269 17.112 203.765 16.808C204.261 16.488 204.645 16.056 204.917 15.512C205.205 14.952 205.349 14.328 205.349 13.64C205.349 12.936 205.205 12.312 204.917 11.768C204.645 11.208 204.261 10.776 203.765 10.472C203.269 10.152 202.709 9.992 202.085 9.992C201.445 9.992 200.877 10.152 200.381 10.472C199.885 10.792 199.493 11.224 199.205 11.768C198.917 12.312 198.781 12.936 198.797 13.64C198.781 14.328 198.917 14.952 199.205 15.512C199.493 16.056 199.885 16.488 200.381 16.808C200.877 17.112 201.445 17.264 202.085 17.264ZM217.129 25.52C216.121 25.52 215.129 25.368 214.153 25.064C213.177 24.776 212.385 24.4 211.777 23.936L212.977 21.488C213.297 21.712 213.665 21.912 214.081 22.088C214.497 22.264 214.929 22.4 215.377 22.496C215.841 22.592 216.313 22.64 216.793 22.64C217.625 22.64 218.305 22.512 218.833 22.256C219.377 22 219.785 21.616 220.057 21.104C220.329 20.608 220.465 19.968 220.465 19.184V16.976L221.041 17.096C220.945 17.624 220.681 18.112 220.249 18.56C219.817 18.992 219.273 19.344 218.617 19.616C217.961 19.872 217.289 20 216.601 20C215.417 20 214.369 19.728 213.457 19.184C212.545 18.64 211.825 17.888 211.297 16.928C210.769 15.968 210.505 14.864 210.505 13.616C210.505 12.336 210.761 11.208 211.273 10.232C211.801 9.24 212.513 8.464 213.409 7.904C214.321 7.328 215.353 7.04 216.505 7.04C216.985 7.04 217.441 7.096 217.873 7.208C218.321 7.32 218.729 7.48 219.097 7.688C219.481 7.88 219.817 8.104 220.105 8.36C220.409 8.6 220.657 8.864 220.849 9.152C221.041 9.44 221.161 9.728 221.209 10.016L220.513 10.208L220.609 7.304H223.873V19.04C223.873 20.08 223.721 21 223.417 21.8C223.113 22.6 222.665 23.272 222.073 23.816C221.497 24.376 220.785 24.8 219.937 25.088C219.105 25.376 218.169 25.52 217.129 25.52ZM217.225 17.264C217.897 17.264 218.481 17.112 218.977 16.808C219.489 16.504 219.881 16.08 220.153 15.536C220.425 14.992 220.561 14.352 220.561 13.616C220.561 12.896 220.425 12.264 220.153 11.72C219.881 11.16 219.489 10.728 218.977 10.424C218.481 10.12 217.897 9.968 217.225 9.968C216.569 9.968 215.985 10.128 215.473 10.448C214.977 10.752 214.593 11.176 214.321 11.72C214.049 12.264 213.913 12.896 213.913 13.616C213.913 14.336 214.049 14.976 214.321 15.536C214.593 16.08 214.977 16.504 215.473 16.808C215.985 17.112 216.569 17.264 217.225 17.264ZM227.547 20V7.304H230.955V20H227.547ZM229.227 4.688C228.571 4.688 228.059 4.528 227.691 4.208C227.323 3.888 227.139 3.432 227.139 2.84C227.139 2.296 227.323 1.856 227.691 1.52C228.075 1.168 228.587 0.991999 229.227 0.991999C229.883 0.991999 230.395 1.16 230.763 1.496C231.131 1.816 231.315 2.264 231.315 2.84C231.315 3.4 231.123 3.848 230.739 4.184C230.371 4.52 229.867 4.688 229.227 4.688ZM234.595 20V7.304H237.859L237.955 9.896L237.283 10.184C237.459 9.608 237.771 9.088 238.219 8.624C238.683 8.144 239.235 7.76 239.875 7.472C240.515 7.184 241.187 7.04 241.891 7.04C242.851 7.04 243.651 7.232 244.291 7.616C244.947 8 245.435 8.584 245.755 9.368C246.091 10.136 246.259 11.088 246.259 12.224V20H242.851V12.488C242.851 11.912 242.771 11.432 242.611 11.048C242.451 10.664 242.203 10.384 241.867 10.208C241.547 10.016 241.147 9.936 240.667 9.968C240.283 9.968 239.923 10.032 239.587 10.16C239.267 10.272 238.987 10.44 238.747 10.664C238.523 10.888 238.339 11.144 238.195 11.432C238.067 11.72 238.003 12.032 238.003 12.368V20H236.323C235.955 20 235.627 20 235.339 20C235.051 20 234.803 20 234.595 20Z" fill="url(#paint0_linear_326_1188)"/>
<defs>
<linearGradient id="paint0_linear_326_1188" x1="60.1118" y1="2" x2="60.1118" y2="23" gradientUnits="userSpaceOnUse">
<stop stop-color="#007991"/>
<stop offset="1" stop-color="#78FFD6"/>
</linearGradient>
</defs>
</svg>
