<svg width="165" height="17" viewBox="0 0 165 17" fill="none" xmlns="http://www.w3.org/2000/svg">
<path d="M0.456 13V1.8H8.024V3.912H2.792V10.888H8.136V13H0.456ZM1.576 8.312V6.264H7.256V8.312H1.576ZM15.6363 13L13.5403 10.008L12.9003 9.112L9.47625 4.536H12.2283L14.2763 7.432L14.9803 8.392L18.3563 13H15.6363ZM9.44425 13L12.8203 8.376L14.0683 9.864L12.1163 13H9.44425ZM14.8843 9.192L13.6683 7.704L15.4763 4.536H18.1483L14.8843 9.192ZM19.953 13V4.536H22.225V13H19.953ZM21.073 2.792C20.6357 2.792 20.2943 2.68533 20.049 2.472C19.8037 2.25867 19.681 1.95467 19.681 1.56C19.681 1.19733 19.8037 0.904 20.049 0.679999C20.305 0.445333 20.6463 0.327999 21.073 0.327999C21.5103 0.327999 21.8517 0.439999 22.097 0.664C22.3423 0.877333 22.465 1.176 22.465 1.56C22.465 1.93333 22.337 2.232 22.081 2.456C21.8357 2.68 21.4997 2.792 21.073 2.792ZM27.4996 13.16C26.7103 13.16 26.0063 13.032 25.3876 12.776C24.7796 12.5093 24.289 12.1467 23.9156 11.688L25.3236 10.472C25.6543 10.824 26.0223 11.08 26.4276 11.24C26.833 11.3893 27.2383 11.464 27.6436 11.464C27.8036 11.464 27.9476 11.448 28.0756 11.416C28.2143 11.3733 28.3316 11.32 28.4276 11.256C28.5236 11.1813 28.593 11.096 28.6356 11C28.689 10.8933 28.7156 10.7813 28.7156 10.664C28.7156 10.4293 28.6196 10.2427 28.4276 10.104C28.321 10.0507 28.1556 9.98667 27.9316 9.912C27.7076 9.82667 27.4196 9.736 27.0676 9.64C26.5236 9.50133 26.0596 9.34133 25.6756 9.16C25.3023 8.968 25.0036 8.75467 24.7796 8.52C24.5876 8.296 24.4383 8.056 24.3316 7.8C24.2356 7.53333 24.1876 7.24 24.1876 6.92C24.1876 6.536 24.273 6.18933 24.4436 5.88C24.6143 5.56 24.849 5.288 25.1476 5.064C25.457 4.84 25.809 4.66933 26.2036 4.552C26.5983 4.424 27.0143 4.36 27.4516 4.36C27.889 4.36 28.3156 4.41333 28.7316 4.52C29.1476 4.62667 29.5316 4.78133 29.8836 4.984C30.2463 5.176 30.561 5.40533 30.8276 5.672L29.6116 7.016C29.4196 6.83467 29.201 6.66933 28.9556 6.52C28.721 6.37067 28.4756 6.25333 28.2196 6.168C27.9636 6.08267 27.7343 6.04 27.5316 6.04C27.3503 6.04 27.185 6.056 27.0356 6.088C26.897 6.12 26.7796 6.168 26.6836 6.232C26.5876 6.296 26.513 6.38133 26.4596 6.488C26.417 6.584 26.3956 6.69067 26.3956 6.808C26.3956 6.92533 26.4223 7.03733 26.4756 7.144C26.5396 7.25067 26.625 7.34133 26.7316 7.416C26.849 7.48 27.0196 7.55467 27.2436 7.64C27.4783 7.72533 27.793 7.82133 28.1876 7.928C28.6996 8.06667 29.1316 8.22133 29.4836 8.392C29.8463 8.56267 30.1343 8.76 30.3476 8.984C30.529 9.176 30.6623 9.39467 30.7476 9.64C30.833 9.88533 30.8756 10.1573 30.8756 10.456C30.8756 10.9787 30.7263 11.448 30.4276 11.864C30.1396 12.2693 29.7396 12.5893 29.2276 12.824C28.7156 13.048 28.1396 13.16 27.4996 13.16ZM33.3114 13V2.392H35.5834V13H33.3114ZM31.7274 6.568V4.536H37.3114V6.568H31.7274ZM38.9843 13V4.536H41.2563V13H38.9843ZM40.1043 2.792C39.6669 2.792 39.3256 2.68533 39.0803 2.472C38.8349 2.25867 38.7122 1.95467 38.7122 1.56C38.7122 1.19733 38.8349 0.904 39.0803 0.679999C39.3363 0.445333 39.6776 0.327999 40.1043 0.327999C40.5416 0.327999 40.8829 0.439999 41.1283 0.664C41.3736 0.877333 41.4963 1.176 41.4963 1.56C41.4963 1.93333 41.3683 2.232 41.1123 2.456C40.8669 2.68 40.5309 2.792 40.1043 2.792ZM43.6829 13V4.536H45.8589L45.9229 6.264L45.4749 6.456C45.5922 6.072 45.8002 5.72533 46.0989 5.416C46.4082 5.096 46.7762 4.84 47.2029 4.648C47.6295 4.456 48.0775 4.36 48.5469 4.36C49.1869 4.36 49.7202 4.488 50.1469 4.744C50.5842 5 50.9095 5.38933 51.1229 5.912C51.3469 6.424 51.4589 7.05867 51.4589 7.816V13H49.1869V7.992C49.1869 7.608 49.1335 7.288 49.0269 7.032C48.9202 6.776 48.7549 6.58933 48.5309 6.472C48.3175 6.344 48.0509 6.29067 47.7309 6.312C47.4749 6.312 47.2349 6.35467 47.0109 6.44C46.7975 6.51467 46.6109 6.62667 46.4509 6.776C46.3015 6.92533 46.1789 7.096 46.0829 7.288C45.9975 7.48 45.9549 7.688 45.9549 7.912V13H44.8349C44.5895 13 44.3709 13 44.1789 13C43.9869 13 43.8215 13 43.6829 13ZM57.492 16.68C56.82 16.68 56.1587 16.5787 55.508 16.376C54.8573 16.184 54.3293 15.9333 53.924 15.624L54.724 13.992C54.9373 14.1413 55.1827 14.2747 55.46 14.392C55.7373 14.5093 56.0253 14.6 56.324 14.664C56.6333 14.728 56.948 14.76 57.268 14.76C57.8227 14.76 58.276 14.6747 58.628 14.504C58.9907 14.3333 59.2627 14.0773 59.444 13.736C59.6253 13.4053 59.716 12.9787 59.716 12.456V10.984L60.1 11.064C60.036 11.416 59.86 11.7413 59.572 12.04C59.284 12.328 58.9213 12.5627 58.484 12.744C58.0467 12.9147 57.5987 13 57.14 13C56.3507 13 55.652 12.8187 55.044 12.456C54.436 12.0933 53.956 11.592 53.604 10.952C53.252 10.312 53.076 9.576 53.076 8.744C53.076 7.89067 53.2467 7.13867 53.588 6.488C53.94 5.82667 54.4147 5.30933 55.012 4.936C55.62 4.552 56.308 4.36 57.076 4.36C57.396 4.36 57.7 4.39733 57.988 4.472C58.2867 4.54667 58.5587 4.65333 58.804 4.792C59.06 4.92 59.284 5.06933 59.476 5.24C59.6787 5.4 59.844 5.576 59.972 5.768C60.1 5.96 60.18 6.152 60.212 6.344L59.748 6.472L59.812 4.536H61.988V12.36C61.988 13.0533 61.8867 13.6667 61.684 14.2C61.4813 14.7333 61.1827 15.1813 60.788 15.544C60.404 15.9173 59.9293 16.2 59.364 16.392C58.8093 16.584 58.1853 16.68 57.492 16.68ZM57.556 11.176C58.004 11.176 58.3933 11.0747 58.724 10.872C59.0653 10.6693 59.3267 10.3867 59.508 10.024C59.6893 9.66133 59.78 9.23467 59.78 8.744C59.78 8.264 59.6893 7.84267 59.508 7.48C59.3267 7.10667 59.0653 6.81867 58.724 6.616C58.3933 6.41333 58.004 6.312 57.556 6.312C57.1187 6.312 56.7293 6.41867 56.388 6.632C56.0573 6.83467 55.8013 7.11733 55.62 7.48C55.4387 7.84267 55.348 8.264 55.348 8.744C55.348 9.224 55.4387 9.65067 55.62 10.024C55.8013 10.3867 56.0573 10.6693 56.388 10.872C56.7293 11.0747 57.1187 11.176 57.556 11.176ZM72.0636 13.16C71.445 13.16 70.9116 13.0267 70.4636 12.76C70.0263 12.4827 69.685 12.0933 69.4396 11.592C69.205 11.08 69.0876 10.4667 69.0876 9.752V4.536H71.3596V9.384C71.3596 9.768 71.4236 10.104 71.5516 10.392C71.6796 10.6693 71.861 10.8827 72.0956 11.032C72.3303 11.1813 72.6183 11.256 72.9596 11.256C73.205 11.256 73.4343 11.2187 73.6476 11.144C73.861 11.0587 74.0423 10.9413 74.1916 10.792C74.341 10.6427 74.4583 10.4667 74.5436 10.264C74.629 10.0613 74.6716 9.84267 74.6716 9.608V4.536H76.9436V13H74.7836L74.7036 11.256L75.1196 11.064C74.9916 11.4587 74.7783 11.816 74.4796 12.136C74.181 12.456 73.8236 12.7067 73.4076 12.888C72.9916 13.0693 72.5436 13.16 72.0636 13.16ZM82.0778 13.16C81.2884 13.16 80.5844 13.032 79.9658 12.776C79.3578 12.5093 78.8671 12.1467 78.4938 11.688L79.9018 10.472C80.2324 10.824 80.6004 11.08 81.0058 11.24C81.4111 11.3893 81.8164 11.464 82.2218 11.464C82.3818 11.464 82.5258 11.448 82.6538 11.416C82.7924 11.3733 82.9098 11.32 83.0058 11.256C83.1018 11.1813 83.1711 11.096 83.2138 11C83.2671 10.8933 83.2938 10.7813 83.2938 10.664C83.2938 10.4293 83.1978 10.2427 83.0058 10.104C82.8991 10.0507 82.7338 9.98667 82.5098 9.912C82.2858 9.82667 81.9978 9.736 81.6458 9.64C81.1018 9.50133 80.6378 9.34133 80.2538 9.16C79.8804 8.968 79.5818 8.75467 79.3578 8.52C79.1658 8.296 79.0164 8.056 78.9098 7.8C78.8138 7.53333 78.7658 7.24 78.7658 6.92C78.7658 6.536 78.8511 6.18933 79.0218 5.88C79.1924 5.56 79.4271 5.288 79.7258 5.064C80.0351 4.84 80.3871 4.66933 80.7818 4.552C81.1764 4.424 81.5924 4.36 82.0298 4.36C82.4671 4.36 82.8938 4.41333 83.3098 4.52C83.7258 4.62667 84.1098 4.78133 84.4618 4.984C84.8244 5.176 85.1391 5.40533 85.4058 5.672L84.1898 7.016C83.9978 6.83467 83.7791 6.66933 83.5338 6.52C83.2991 6.37067 83.0538 6.25333 82.7977 6.168C82.5418 6.08267 82.3124 6.04 82.1098 6.04C81.9284 6.04 81.7631 6.056 81.6138 6.088C81.4751 6.12 81.3578 6.168 81.2618 6.232C81.1658 6.296 81.0911 6.38133 81.0378 6.488C80.9951 6.584 80.9738 6.69067 80.9738 6.808C80.9738 6.92533 81.0004 7.03733 81.0538 7.144C81.1178 7.25067 81.2031 7.34133 81.3098 7.416C81.4271 7.48 81.5978 7.55467 81.8218 7.64C82.0564 7.72533 82.3711 7.82133 82.7658 7.928C83.2778 8.06667 83.7098 8.22133 84.0618 8.392C84.4244 8.56267 84.7124 8.76 84.9258 8.984C85.1071 9.176 85.2404 9.39467 85.3258 9.64C85.4111 9.88533 85.4538 10.1573 85.4538 10.456C85.4538 10.9787 85.3044 11.448 85.0058 11.864C84.7178 12.2693 84.3178 12.5893 83.8058 12.824C83.2938 13.048 82.7178 13.16 82.0778 13.16ZM91.0895 13.16C90.1722 13.16 89.3722 12.9733 88.6895 12.6C88.0068 12.2267 87.4735 11.7147 87.0895 11.064C86.7055 10.4133 86.5135 9.66667 86.5135 8.824C86.5135 8.17333 86.6202 7.576 86.8335 7.032C87.0468 6.488 87.3455 6.01867 87.7295 5.624C88.1135 5.21867 88.5668 4.90933 89.0895 4.696C89.6228 4.472 90.1988 4.36 90.8175 4.36C91.3935 4.36 91.9268 4.46667 92.4175 4.68C92.9082 4.88267 93.3295 5.176 93.6815 5.56C94.0442 5.93333 94.3215 6.376 94.5135 6.888C94.7055 7.4 94.7908 7.96 94.7695 8.568L94.7535 9.272H87.9535L87.5855 7.88H92.8815L92.6255 8.168V7.816C92.6042 7.528 92.5082 7.26667 92.3375 7.032C92.1775 6.79733 91.9695 6.616 91.7135 6.488C91.4575 6.36 91.1695 6.296 90.8495 6.296C90.3802 6.296 89.9802 6.38667 89.6495 6.568C89.3295 6.74933 89.0842 7.016 88.9135 7.368C88.7428 7.72 88.6575 8.14667 88.6575 8.648C88.6575 9.16 88.7642 9.60267 88.9775 9.976C89.2015 10.3493 89.5108 10.6427 89.9055 10.856C90.3108 11.0587 90.7855 11.16 91.3295 11.16C91.7028 11.16 92.0442 11.1013 92.3535 10.984C92.6628 10.8667 92.9935 10.664 93.3455 10.376L94.4335 11.896C94.1242 12.1733 93.7828 12.408 93.4095 12.6C93.0362 12.7813 92.6522 12.92 92.2575 13.016C91.8628 13.112 91.4735 13.16 91.0895 13.16ZM96.4485 13V4.536H98.6405L98.7205 7.256L98.3365 6.696C98.4645 6.25867 98.6725 5.864 98.9605 5.512C99.2485 5.14933 99.5845 4.86667 99.9685 4.664C100.363 4.46133 100.774 4.36 101.201 4.36C101.382 4.36 101.558 4.376 101.729 4.408C101.899 4.44 102.043 4.47733 102.161 4.52L101.553 7.016C101.425 6.952 101.27 6.89867 101.089 6.856C100.907 6.80267 100.721 6.776 100.529 6.776C100.273 6.776 100.033 6.824 99.8085 6.92C99.5952 7.00533 99.4085 7.13333 99.2485 7.304C99.0885 7.464 98.9605 7.656 98.8645 7.88C98.7792 8.104 98.7365 8.34933 98.7365 8.616V13H96.4485ZM110.354 9.32L109.858 7.16C110.21 7.07467 110.53 6.97867 110.818 6.872C111.117 6.75467 111.384 6.632 111.618 6.504C111.853 6.376 112.05 6.232 112.21 6.072C112.381 5.912 112.509 5.736 112.594 5.544C112.69 5.34133 112.738 5.128 112.738 4.904C112.738 4.66933 112.674 4.46133 112.546 4.28C112.418 4.088 112.248 3.944 112.034 3.848C111.821 3.74133 111.57 3.688 111.282 3.688C110.909 3.688 110.536 3.82133 110.162 4.088C109.8 4.344 109.469 4.74933 109.17 5.304L107.602 3.88C108.082 3.15467 108.648 2.59467 109.298 2.2C109.96 1.79467 110.648 1.592 111.362 1.592C112.056 1.592 112.68 1.736 113.234 2.024C113.789 2.30133 114.226 2.68533 114.546 3.176C114.877 3.66667 115.042 4.216 115.042 4.824C115.042 5.208 114.962 5.58667 114.802 5.96C114.642 6.32267 114.418 6.66933 114.13 7C113.853 7.32 113.522 7.60267 113.138 7.848C112.754 8.09333 112.333 8.29067 111.874 8.44L111.682 9.32H110.354ZM109.778 11.816C109.778 11.4213 109.896 11.1013 110.13 10.856C110.365 10.6 110.674 10.472 111.058 10.472C111.474 10.472 111.794 10.5893 112.018 10.824C112.242 11.0587 112.354 11.3893 112.354 11.816C112.354 12.2213 112.232 12.552 111.986 12.808C111.752 13.0533 111.442 13.176 111.058 13.176C110.653 13.176 110.338 13.0587 110.114 12.824C109.89 12.5893 109.778 12.2533 109.778 11.816Z" fill="#212B36"/>
<path d="M122.05 13V1.8H124.45V10.84H129.522V13H122.05ZM135.056 13.16C134.192 13.16 133.419 12.9733 132.736 12.6C132.064 12.216 131.531 11.6933 131.136 11.032C130.752 10.3707 130.56 9.61333 130.56 8.76C130.56 7.90667 130.752 7.15467 131.136 6.504C131.531 5.84267 132.064 5.32 132.736 4.936C133.419 4.552 134.192 4.36 135.056 4.36C135.91 4.36 136.672 4.552 137.344 4.936C138.027 5.32 138.56 5.84267 138.944 6.504C139.328 7.15467 139.52 7.90667 139.52 8.76C139.52 9.61333 139.328 10.3707 138.944 11.032C138.56 11.6933 138.027 12.216 137.344 12.6C136.672 12.9733 135.91 13.16 135.056 13.16ZM135.056 11.176C135.472 11.176 135.846 11.0747 136.176 10.872C136.507 10.6587 136.763 10.3707 136.944 10.008C137.136 9.63467 137.232 9.21867 137.232 8.76C137.232 8.29067 137.136 7.87467 136.944 7.512C136.763 7.13867 136.507 6.85067 136.176 6.648C135.846 6.43467 135.472 6.328 135.056 6.328C134.63 6.328 134.251 6.43467 133.92 6.648C133.59 6.86133 133.328 7.14933 133.136 7.512C132.944 7.87467 132.854 8.29067 132.864 8.76C132.854 9.21867 132.944 9.63467 133.136 10.008C133.328 10.3707 133.59 10.6587 133.92 10.872C134.251 11.0747 134.63 11.176 135.056 11.176ZM145.086 16.68C144.414 16.68 143.752 16.5787 143.102 16.376C142.451 16.184 141.923 15.9333 141.518 15.624L142.318 13.992C142.531 14.1413 142.776 14.2747 143.054 14.392C143.331 14.5093 143.619 14.6 143.918 14.664C144.227 14.728 144.542 14.76 144.862 14.76C145.416 14.76 145.87 14.6747 146.222 14.504C146.584 14.3333 146.856 14.0773 147.038 13.736C147.219 13.4053 147.31 12.9787 147.31 12.456V10.984L147.694 11.064C147.63 11.416 147.454 11.7413 147.166 12.04C146.878 12.328 146.515 12.5627 146.078 12.744C145.64 12.9147 145.192 13 144.734 13C143.944 13 143.246 12.8187 142.638 12.456C142.03 12.0933 141.55 11.592 141.198 10.952C140.846 10.312 140.67 9.576 140.67 8.744C140.67 7.89067 140.84 7.13867 141.182 6.488C141.534 5.82667 142.008 5.30933 142.606 4.936C143.214 4.552 143.902 4.36 144.67 4.36C144.99 4.36 145.294 4.39733 145.582 4.472C145.88 4.54667 146.152 4.65333 146.398 4.792C146.654 4.92 146.878 5.06933 147.07 5.24C147.272 5.4 147.438 5.576 147.566 5.768C147.694 5.96 147.774 6.152 147.806 6.344L147.342 6.472L147.406 4.536H149.582V12.36C149.582 13.0533 149.48 13.6667 149.278 14.2C149.075 14.7333 148.776 15.1813 148.382 15.544C147.998 15.9173 147.523 16.2 146.958 16.392C146.403 16.584 145.779 16.68 145.086 16.68ZM145.15 11.176C145.598 11.176 145.987 11.0747 146.318 10.872C146.659 10.6693 146.92 10.3867 147.102 10.024C147.283 9.66133 147.374 9.23467 147.374 8.744C147.374 8.264 147.283 7.84267 147.102 7.48C146.92 7.10667 146.659 6.81867 146.318 6.616C145.987 6.41333 145.598 6.312 145.15 6.312C144.712 6.312 144.323 6.41867 143.982 6.632C143.651 6.83467 143.395 7.11733 143.214 7.48C143.032 7.84267 142.942 8.264 142.942 8.744C142.942 9.224 143.032 9.65067 143.214 10.024C143.395 10.3867 143.651 10.6693 143.982 10.872C144.323 11.0747 144.712 11.176 145.15 11.176ZM152.031 13V4.536H154.303V13H152.031ZM153.151 2.792C152.714 2.792 152.372 2.68533 152.127 2.472C151.882 2.25867 151.759 1.95467 151.759 1.56C151.759 1.19733 151.882 0.904 152.127 0.679999C152.383 0.445333 152.724 0.327999 153.151 0.327999C153.588 0.327999 153.93 0.439999 154.175 0.664C154.42 0.877333 154.543 1.176 154.543 1.56C154.543 1.93333 154.415 2.232 154.159 2.456C153.914 2.68 153.578 2.792 153.151 2.792ZM156.73 13V4.536H158.906L158.97 6.264L158.522 6.456C158.639 6.072 158.847 5.72533 159.146 5.416C159.455 5.096 159.823 4.84 160.25 4.648C160.676 4.456 161.124 4.36 161.594 4.36C162.234 4.36 162.767 4.488 163.194 4.744C163.631 5 163.956 5.38933 164.17 5.912C164.394 6.424 164.506 7.05867 164.506 7.816V13H162.234V7.992C162.234 7.608 162.18 7.288 162.074 7.032C161.967 6.776 161.802 6.58933 161.578 6.472C161.364 6.344 161.098 6.29067 160.778 6.312C160.522 6.312 160.282 6.35467 160.058 6.44C159.844 6.51467 159.658 6.62667 159.498 6.776C159.348 6.92533 159.226 7.096 159.13 7.288C159.044 7.48 159.002 7.688 159.002 7.912V13H157.882C157.636 13 157.418 13 157.226 13C157.034 13 156.868 13 156.73 13Z" fill="url(#paint0_linear_236_786)"/>
<defs>
<linearGradient id="paint0_linear_236_786" x1="40.4907" y1="1" x2="40.4907" y2="15" gradientUnits="userSpaceOnUse">
<stop stop-color="#007991"/>
<stop offset="1" stop-color="#78FFD6"/>
</linearGradient>
</defs>
</svg>
