<svg width="284" height="17" viewBox="0 0 284 17" fill="none" xmlns="http://www.w3.org/2000/svg">
<path d="M5.064 13.096C4.15733 13.096 3.34667 12.9093 2.632 12.536C1.928 12.152 1.37333 11.6293 0.968 10.968C0.562667 10.296 0.36 9.53867 0.36 8.696V1.784H2.776V8.552C2.776 9 2.87733 9.40533 3.08 9.768C3.28267 10.12 3.55467 10.4027 3.896 10.616C4.248 10.8293 4.63733 10.936 5.064 10.936C5.50133 10.936 5.896 10.8293 6.248 10.616C6.61067 10.4027 6.89333 10.12 7.096 9.768C7.30933 9.40533 7.416 9 7.416 8.552V1.784H9.752V8.696C9.752 9.53867 9.54933 10.296 9.144 10.968C8.73867 11.6293 8.17867 12.152 7.464 12.536C6.76 12.9093 5.96 13.096 5.064 13.096ZM12.2454 13V4.536H14.4214L14.4854 6.264L14.0374 6.456C14.1547 6.072 14.3627 5.72533 14.6614 5.416C14.9707 5.096 15.3387 4.84 15.7654 4.648C16.192 4.456 16.64 4.36 17.1094 4.36C17.7494 4.36 18.2827 4.488 18.7094 4.744C19.1467 5 19.472 5.38933 19.6854 5.912C19.9094 6.424 20.0214 7.05867 20.0214 7.816V13H17.7494V7.992C17.7494 7.608 17.696 7.288 17.5894 7.032C17.4827 6.776 17.3174 6.58933 17.0934 6.472C16.88 6.344 16.6134 6.29067 16.2934 6.312C16.0374 6.312 15.7974 6.35467 15.5734 6.44C15.36 6.51467 15.1734 6.62667 15.0134 6.776C14.864 6.92533 14.7414 7.096 14.6454 7.288C14.56 7.48 14.5174 7.688 14.5174 7.912V13H13.3974C13.152 13 12.9334 13 12.7414 13C12.5494 13 12.384 13 12.2454 13ZM22.2145 13V1.16H24.4865V13H22.2145ZM30.652 13.16C29.7347 13.16 28.9347 12.9733 28.252 12.6C27.5693 12.2267 27.036 11.7147 26.652 11.064C26.268 10.4133 26.076 9.66667 26.076 8.824C26.076 8.17333 26.1827 7.576 26.396 7.032C26.6093 6.488 26.908 6.01867 27.292 5.624C27.676 5.21867 28.1293 4.90933 28.652 4.696C29.1853 4.472 29.7613 4.36 30.38 4.36C30.956 4.36 31.4893 4.46667 31.98 4.68C32.4707 4.88267 32.892 5.176 33.244 5.56C33.6067 5.93333 33.884 6.376 34.076 6.888C34.268 7.4 34.3533 7.96 34.332 8.568L34.316 9.272H27.516L27.148 7.88H32.444L32.188 8.168V7.816C32.1667 7.528 32.0707 7.26667 31.9 7.032C31.74 6.79733 31.532 6.616 31.276 6.488C31.02 6.36 30.732 6.296 30.412 6.296C29.9427 6.296 29.5427 6.38667 29.212 6.568C28.892 6.74933 28.6467 7.016 28.476 7.368C28.3053 7.72 28.22 8.14667 28.22 8.648C28.22 9.16 28.3267 9.60267 28.54 9.976C28.764 10.3493 29.0733 10.6427 29.468 10.856C29.8733 11.0587 30.348 11.16 30.892 11.16C31.2653 11.16 31.6067 11.1013 31.916 10.984C32.2253 10.8667 32.556 10.664 32.908 10.376L33.996 11.896C33.6867 12.1733 33.3453 12.408 32.972 12.6C32.5987 12.7813 32.2147 12.92 31.82 13.016C31.4253 13.112 31.036 13.16 30.652 13.16ZM39.179 13.16C38.475 13.16 37.8403 12.968 37.275 12.584C36.7097 12.2 36.2617 11.6773 35.931 11.016C35.6003 10.3547 35.435 9.59733 35.435 8.744C35.435 7.89067 35.6003 7.13867 35.931 6.488C36.2723 5.82667 36.731 5.30933 37.307 4.936C37.883 4.552 38.539 4.36 39.275 4.36C39.691 4.36 40.0697 4.424 40.411 4.552C40.763 4.66933 41.067 4.83467 41.323 5.048C41.5897 5.26133 41.8137 5.50667 41.995 5.784C42.1763 6.06133 42.3043 6.36 42.379 6.68L41.899 6.6V4.536H44.155V13H41.867V10.968L42.379 10.92C42.2937 11.2187 42.155 11.5013 41.963 11.768C41.771 12.0347 41.531 12.2747 41.243 12.488C40.9657 12.6907 40.651 12.856 40.299 12.984C39.947 13.1013 39.5737 13.16 39.179 13.16ZM39.803 11.192C40.2297 11.192 40.603 11.0907 40.923 10.888C41.243 10.6853 41.4883 10.4027 41.659 10.04C41.8403 9.66667 41.931 9.23467 41.931 8.744C41.931 8.264 41.8403 7.84267 41.659 7.48C41.4883 7.11733 41.243 6.83467 40.923 6.632C40.603 6.41867 40.2297 6.312 39.803 6.312C39.387 6.312 39.019 6.41867 38.699 6.632C38.3897 6.83467 38.1443 7.11733 37.963 7.48C37.7817 7.84267 37.691 8.264 37.691 8.744C37.691 9.23467 37.7817 9.66667 37.963 10.04C38.1443 10.4027 38.3897 10.6853 38.699 10.888C39.019 11.0907 39.387 11.192 39.803 11.192ZM49.2809 13.16C48.4915 13.16 47.7875 13.032 47.1689 12.776C46.5609 12.5093 46.0702 12.1467 45.6969 11.688L47.1049 10.472C47.4355 10.824 47.8035 11.08 48.2089 11.24C48.6142 11.3893 49.0195 11.464 49.4249 11.464C49.5849 11.464 49.7289 11.448 49.8569 11.416C49.9955 11.3733 50.1129 11.32 50.2089 11.256C50.3049 11.1813 50.3742 11.096 50.4169 11C50.4702 10.8933 50.4969 10.7813 50.4969 10.664C50.4969 10.4293 50.4009 10.2427 50.2089 10.104C50.1022 10.0507 49.9369 9.98667 49.7129 9.912C49.4889 9.82667 49.2009 9.736 48.8489 9.64C48.3049 9.50133 47.8409 9.34133 47.4569 9.16C47.0835 8.968 46.7849 8.75467 46.5609 8.52C46.3689 8.296 46.2195 8.056 46.1129 7.8C46.0169 7.53333 45.9689 7.24 45.9689 6.92C45.9689 6.536 46.0542 6.18933 46.2249 5.88C46.3955 5.56 46.6302 5.288 46.9289 5.064C47.2382 4.84 47.5902 4.66933 47.9849 4.552C48.3795 4.424 48.7955 4.36 49.2329 4.36C49.6702 4.36 50.0969 4.41333 50.5129 4.52C50.9289 4.62667 51.3129 4.78133 51.6649 4.984C52.0275 5.176 52.3422 5.40533 52.6089 5.672L51.3929 7.016C51.2009 6.83467 50.9822 6.66933 50.7369 6.52C50.5022 6.37067 50.2569 6.25333 50.0009 6.168C49.7449 6.08267 49.5155 6.04 49.3129 6.04C49.1315 6.04 48.9662 6.056 48.8169 6.088C48.6782 6.12 48.5609 6.168 48.4649 6.232C48.3689 6.296 48.2942 6.38133 48.2409 6.488C48.1982 6.584 48.1769 6.69067 48.1769 6.808C48.1769 6.92533 48.2035 7.03733 48.2569 7.144C48.3209 7.25067 48.4062 7.34133 48.5129 7.416C48.6302 7.48 48.8009 7.55467 49.0249 7.64C49.2595 7.72533 49.5742 7.82133 49.9689 7.928C50.4809 8.06667 50.9129 8.22133 51.2649 8.392C51.6275 8.56267 51.9155 8.76 52.1289 8.984C52.3102 9.176 52.4435 9.39467 52.5289 9.64C52.6142 9.88533 52.6569 10.1573 52.6569 10.456C52.6569 10.9787 52.5075 11.448 52.2089 11.864C51.9209 12.2693 51.5209 12.5893 51.0089 12.824C50.4969 13.048 49.9209 13.16 49.2809 13.16ZM54.2766 13V1.16H56.5166V6.264L56.0686 6.456C56.186 6.072 56.394 5.72533 56.6926 5.416C57.002 5.096 57.37 4.84 57.7966 4.648C58.2233 4.456 58.6713 4.36 59.1406 4.36C59.7806 4.36 60.314 4.488 60.7406 4.744C61.178 5 61.5033 5.38933 61.7166 5.912C61.9406 6.424 62.0526 7.05867 62.0526 7.816V13H59.7806V7.992C59.7806 7.608 59.7273 7.288 59.6206 7.032C59.514 6.776 59.3486 6.58933 59.1246 6.472C58.9113 6.344 58.6446 6.29067 58.3246 6.312C58.0686 6.312 57.8286 6.35467 57.6046 6.44C57.3913 6.51467 57.2046 6.62667 57.0446 6.776C56.8953 6.92533 56.7726 7.096 56.6766 7.288C56.5913 7.48 56.5486 7.688 56.5486 7.912V13H55.4286C55.1833 13 54.9646 13 54.7726 13C54.5806 13 54.4153 13 54.2766 13ZM70.32 16.68L72.176 12.328L72.208 13.64L68.08 4.536H70.656L72.72 9.416C72.8053 9.59733 72.8853 9.81067 72.96 10.056C73.0453 10.2907 73.1147 10.52 73.168 10.744L72.784 10.904C72.848 10.7227 72.9227 10.5147 73.008 10.28C73.0933 10.0453 73.1787 9.79467 73.264 9.528L75.04 4.536H77.632L74.08 13L72.624 16.68H70.32ZM82.6345 13.16C81.7705 13.16 80.9972 12.9733 80.3145 12.6C79.6425 12.216 79.1092 11.6933 78.7145 11.032C78.3305 10.3707 78.1385 9.61333 78.1385 8.76C78.1385 7.90667 78.3305 7.15467 78.7145 6.504C79.1092 5.84267 79.6425 5.32 80.3145 4.936C80.9972 4.552 81.7705 4.36 82.6345 4.36C83.4878 4.36 84.2505 4.552 84.9225 4.936C85.6052 5.32 86.1385 5.84267 86.5225 6.504C86.9065 7.15467 87.0985 7.90667 87.0985 8.76C87.0985 9.61333 86.9065 10.3707 86.5225 11.032C86.1385 11.6933 85.6052 12.216 84.9225 12.6C84.2505 12.9733 83.4878 13.16 82.6345 13.16ZM82.6345 11.176C83.0505 11.176 83.4238 11.0747 83.7545 10.872C84.0852 10.6587 84.3412 10.3707 84.5225 10.008C84.7145 9.63467 84.8105 9.21867 84.8105 8.76C84.8105 8.29067 84.7145 7.87467 84.5225 7.512C84.3412 7.13867 84.0852 6.85067 83.7545 6.648C83.4238 6.43467 83.0505 6.328 82.6345 6.328C82.2078 6.328 81.8292 6.43467 81.4985 6.648C81.1678 6.86133 80.9065 7.14933 80.7145 7.512C80.5225 7.87467 80.4318 8.29067 80.4425 8.76C80.4318 9.21867 80.5225 9.63467 80.7145 10.008C80.9065 10.3707 81.1678 10.6587 81.4985 10.872C81.8292 11.0747 82.2078 11.176 82.6345 11.176ZM91.7199 13.16C91.1012 13.16 90.5679 13.0267 90.1199 12.76C89.6825 12.4827 89.3412 12.0933 89.0959 11.592C88.8612 11.08 88.7439 10.4667 88.7439 9.752V4.536H91.0159V9.384C91.0159 9.768 91.0799 10.104 91.2079 10.392C91.3359 10.6693 91.5172 10.8827 91.7519 11.032C91.9865 11.1813 92.2745 11.256 92.6159 11.256C92.8612 11.256 93.0905 11.2187 93.3039 11.144C93.5172 11.0587 93.6985 10.9413 93.8479 10.792C93.9972 10.6427 94.1145 10.4667 94.1999 10.264C94.2852 10.0613 94.3279 9.84267 94.3279 9.608V4.536H96.5999V13H94.4399L94.3599 11.256L94.7759 11.064C94.6479 11.4587 94.4345 11.816 94.1359 12.136C93.8372 12.456 93.4799 12.7067 93.0639 12.888C92.6479 13.0693 92.1999 13.16 91.7199 13.16ZM98.886 13V4.536H101.078L101.158 7.256L100.774 6.696C100.902 6.25867 101.11 5.864 101.398 5.512C101.686 5.14933 102.022 4.86667 102.406 4.664C102.801 4.46133 103.211 4.36 103.638 4.36C103.819 4.36 103.995 4.376 104.166 4.408C104.337 4.44 104.481 4.47733 104.598 4.52L103.99 7.016C103.862 6.952 103.707 6.89867 103.526 6.856C103.345 6.80267 103.158 6.776 102.966 6.776C102.71 6.776 102.47 6.824 102.246 6.92C102.033 7.00533 101.846 7.13333 101.686 7.304C101.526 7.464 101.398 7.656 101.302 7.88C101.217 8.104 101.174 8.34933 101.174 8.616V13H98.886ZM165.814 16.088L165.11 15.24C165.526 15.0373 165.856 14.792 166.102 14.504C166.358 14.216 166.486 13.9653 166.486 13.752C166.486 13.656 166.459 13.5547 166.406 13.448C166.352 13.3413 166.235 13.208 166.054 13.048C165.819 12.8667 165.659 12.696 165.574 12.536C165.499 12.3653 165.462 12.184 165.462 11.992C165.462 11.6827 165.574 11.4373 165.798 11.256C166.022 11.0747 166.31 10.984 166.662 10.984C166.95 10.984 167.211 11.0693 167.446 11.24C167.691 11.4 167.883 11.6293 168.022 11.928C168.16 12.216 168.23 12.552 168.23 12.936C168.23 13.2773 168.171 13.608 168.054 13.928C167.936 14.2587 167.766 14.5627 167.542 14.84C167.328 15.128 167.072 15.3787 166.774 15.592C166.486 15.8053 166.166 15.9707 165.814 16.088ZM178.932 13.16C178.238 13.16 177.604 13.0747 177.028 12.904C176.462 12.7333 175.956 12.4827 175.508 12.152C175.07 11.8213 174.676 11.4213 174.324 10.952L175.828 9.24C176.35 9.96533 176.868 10.4613 177.38 10.728C177.902 10.984 178.468 11.112 179.076 11.112C179.406 11.112 179.7 11.0693 179.956 10.984C180.222 10.888 180.43 10.7547 180.58 10.584C180.729 10.4133 180.804 10.2107 180.804 9.976C180.804 9.80533 180.766 9.65067 180.692 9.512C180.617 9.36267 180.51 9.23467 180.372 9.128C180.233 9.01067 180.068 8.90933 179.876 8.824C179.684 8.728 179.47 8.648 179.236 8.584C179.001 8.50933 178.745 8.45067 178.468 8.408C177.87 8.26933 177.348 8.104 176.9 7.912C176.452 7.70933 176.078 7.464 175.78 7.176C175.481 6.87733 175.257 6.54133 175.108 6.168C174.969 5.79467 174.9 5.37333 174.9 4.904C174.9 4.424 175.006 3.98133 175.22 3.576C175.433 3.16 175.726 2.80267 176.1 2.504C176.484 2.20533 176.921 1.976 177.412 1.816C177.913 1.656 178.441 1.576 178.996 1.576C179.678 1.576 180.276 1.656 180.788 1.816C181.3 1.96533 181.742 2.184 182.116 2.472C182.5 2.76 182.82 3.112 183.076 3.528L181.556 5C181.332 4.70133 181.086 4.45067 180.82 4.248C180.564 4.04533 180.281 3.896 179.972 3.8C179.673 3.69333 179.364 3.64 179.044 3.64C178.692 3.64 178.388 3.688 178.132 3.784C177.876 3.86933 177.673 3.99733 177.524 4.168C177.385 4.33867 177.316 4.54667 177.316 4.792C177.316 4.984 177.364 5.15467 177.46 5.304C177.556 5.45333 177.694 5.58667 177.876 5.704C178.057 5.81067 178.276 5.90667 178.532 5.992C178.788 6.07733 179.07 6.152 179.38 6.216C179.966 6.33333 180.494 6.488 180.964 6.68C181.433 6.872 181.833 7.10667 182.164 7.384C182.505 7.65067 182.766 7.97067 182.948 8.344C183.129 8.70667 183.22 9.11733 183.22 9.576C183.22 10.3333 183.038 10.9787 182.676 11.512C182.313 12.0453 181.812 12.456 181.172 12.744C180.532 13.0213 179.785 13.16 178.932 13.16ZM185.266 13V4.536H187.538V13H185.266ZM186.386 2.792C185.948 2.792 185.607 2.68533 185.362 2.472C185.116 2.25867 184.993 1.95467 184.993 1.56C184.993 1.19733 185.116 0.904 185.362 0.679999C185.618 0.445333 185.959 0.327999 186.386 0.327999C186.823 0.327999 187.164 0.439999 187.41 0.664C187.655 0.877333 187.778 1.176 187.778 1.56C187.778 1.93333 187.65 2.232 187.394 2.456C187.148 2.68 186.812 2.792 186.386 2.792ZM193.82 16.68C193.148 16.68 192.487 16.5787 191.836 16.376C191.185 16.184 190.657 15.9333 190.252 15.624L191.052 13.992C191.265 14.1413 191.511 14.2747 191.788 14.392C192.065 14.5093 192.353 14.6 192.652 14.664C192.961 14.728 193.276 14.76 193.596 14.76C194.151 14.76 194.604 14.6747 194.956 14.504C195.319 14.3333 195.591 14.0773 195.772 13.736C195.953 13.4053 196.044 12.9787 196.044 12.456V10.984L196.428 11.064C196.364 11.416 196.188 11.7413 195.9 12.04C195.612 12.328 195.249 12.5627 194.812 12.744C194.375 12.9147 193.927 13 193.468 13C192.679 13 191.98 12.8187 191.372 12.456C190.764 12.0933 190.284 11.592 189.932 10.952C189.58 10.312 189.404 9.576 189.404 8.744C189.404 7.89067 189.575 7.13867 189.916 6.488C190.268 5.82667 190.743 5.30933 191.34 4.936C191.948 4.552 192.636 4.36 193.404 4.36C193.724 4.36 194.028 4.39733 194.316 4.472C194.615 4.54667 194.887 4.65333 195.132 4.792C195.388 4.92 195.612 5.06933 195.804 5.24C196.007 5.4 196.172 5.576 196.3 5.768C196.428 5.96 196.508 6.152 196.54 6.344L196.076 6.472L196.14 4.536H198.316V12.36C198.316 13.0533 198.215 13.6667 198.012 14.2C197.809 14.7333 197.511 15.1813 197.116 15.544C196.732 15.9173 196.257 16.2 195.692 16.392C195.137 16.584 194.513 16.68 193.82 16.68ZM193.884 11.176C194.332 11.176 194.721 11.0747 195.052 10.872C195.393 10.6693 195.655 10.3867 195.836 10.024C196.017 9.66133 196.108 9.23467 196.108 8.744C196.108 8.264 196.017 7.84267 195.836 7.48C195.655 7.10667 195.393 6.81867 195.052 6.616C194.721 6.41333 194.332 6.312 193.884 6.312C193.447 6.312 193.057 6.41867 192.716 6.632C192.385 6.83467 192.129 7.11733 191.948 7.48C191.767 7.84267 191.676 8.264 191.676 8.744C191.676 9.224 191.767 9.65067 191.948 10.024C192.129 10.3867 192.385 10.6693 192.716 10.872C193.057 11.0747 193.447 11.176 193.884 11.176ZM200.574 13V4.536H202.75L202.814 6.264L202.366 6.456C202.483 6.072 202.691 5.72533 202.99 5.416C203.299 5.096 203.667 4.84 204.094 4.648C204.52 4.456 204.968 4.36 205.438 4.36C206.078 4.36 206.611 4.488 207.038 4.744C207.475 5 207.8 5.38933 208.014 5.912C208.238 6.424 208.35 7.05867 208.35 7.816V13H206.078V7.992C206.078 7.608 206.024 7.288 205.918 7.032C205.811 6.776 205.646 6.58933 205.422 6.472C205.208 6.344 204.942 6.29067 204.622 6.312C204.366 6.312 204.126 6.35467 203.902 6.44C203.688 6.51467 203.502 6.62667 203.342 6.776C203.192 6.92533 203.07 7.096 202.974 7.288C202.888 7.48 202.846 7.688 202.846 7.912V13H201.726C201.48 13 201.262 13 201.07 13C200.878 13 200.712 13 200.574 13ZM213.439 13.16C212.82 13.16 212.287 13.0267 211.839 12.76C211.401 12.4827 211.06 12.0933 210.815 11.592C210.58 11.08 210.463 10.4667 210.463 9.752V4.536H212.735V9.384C212.735 9.768 212.799 10.104 212.927 10.392C213.055 10.6693 213.236 10.8827 213.471 11.032C213.705 11.1813 213.993 11.256 214.335 11.256C214.58 11.256 214.809 11.2187 215.023 11.144C215.236 11.0587 215.417 10.9413 215.567 10.792C215.716 10.6427 215.833 10.4667 215.919 10.264C216.004 10.0613 216.047 9.84267 216.047 9.608V4.536H218.319V13H216.159L216.079 11.256L216.495 11.064C216.367 11.4587 216.153 11.816 215.855 12.136C215.556 12.456 215.199 12.7067 214.783 12.888C214.367 13.0693 213.919 13.16 213.439 13.16ZM220.605 16.52V4.536H222.797L222.861 6.44L222.445 6.296C222.519 5.95467 222.701 5.64 222.989 5.352C223.287 5.064 223.655 4.82933 224.093 4.648C224.53 4.46667 224.989 4.376 225.469 4.376C226.205 4.376 226.855 4.568 227.421 4.952C227.997 5.32533 228.45 5.84267 228.781 6.504C229.122 7.15467 229.293 7.90667 229.293 8.76C229.293 9.60267 229.127 10.3547 228.797 11.016C228.466 11.6773 228.013 12.2 227.437 12.584C226.861 12.9573 226.205 13.144 225.469 13.144C224.978 13.144 224.509 13.0533 224.061 12.872C223.623 12.68 223.25 12.4293 222.941 12.12C222.631 11.8107 222.439 11.48 222.365 11.128L222.893 10.904V16.52H220.605ZM224.957 11.192C225.373 11.192 225.741 11.0907 226.061 10.888C226.381 10.6853 226.631 10.4027 226.813 10.04C226.994 9.66667 227.085 9.24 227.085 8.76C227.085 8.28 226.994 7.85867 226.813 7.496C226.631 7.13333 226.381 6.85067 226.061 6.648C225.751 6.44533 225.383 6.344 224.957 6.344C224.53 6.344 224.157 6.44533 223.837 6.648C223.517 6.84 223.266 7.12267 223.085 7.496C222.903 7.85867 222.813 8.28 222.813 8.76C222.813 9.24 222.903 9.66667 223.085 10.04C223.266 10.4027 223.517 10.6853 223.837 10.888C224.157 11.0907 224.53 11.192 224.957 11.192ZM238.573 13V3.96H235.309V1.8H244.333V3.96H240.973V13H238.573ZM248.338 13.16C247.474 13.16 246.7 12.9733 246.018 12.6C245.346 12.216 244.812 11.6933 244.418 11.032C244.034 10.3707 243.842 9.61333 243.842 8.76C243.842 7.90667 244.034 7.15467 244.418 6.504C244.812 5.84267 245.346 5.32 246.018 4.936C246.7 4.552 247.474 4.36 248.338 4.36C249.191 4.36 249.954 4.552 250.626 4.936C251.308 5.32 251.842 5.84267 252.226 6.504C252.61 7.15467 252.802 7.90667 252.802 8.76C252.802 9.61333 252.61 10.3707 252.226 11.032C251.842 11.6933 251.308 12.216 250.626 12.6C249.954 12.9733 249.191 13.16 248.338 13.16ZM248.338 11.176C248.754 11.176 249.127 11.0747 249.458 10.872C249.788 10.6587 250.044 10.3707 250.226 10.008C250.418 9.63467 250.514 9.21867 250.514 8.76C250.514 8.29067 250.418 7.87467 250.226 7.512C250.044 7.13867 249.788 6.85067 249.458 6.648C249.127 6.43467 248.754 6.328 248.338 6.328C247.911 6.328 247.532 6.43467 247.202 6.648C246.871 6.86133 246.61 7.14933 246.418 7.512C246.226 7.87467 246.135 8.29067 246.146 8.76C246.135 9.21867 246.226 9.63467 246.418 10.008C246.61 10.3707 246.871 10.6587 247.202 10.872C247.532 11.0747 247.911 11.176 248.338 11.176ZM257.823 13.16C257.087 13.16 256.426 12.9733 255.839 12.6C255.252 12.216 254.788 11.6987 254.447 11.048C254.116 10.3867 253.951 9.624 253.951 8.76C253.951 7.91733 254.116 7.16533 254.447 6.504C254.788 5.84267 255.247 5.32 255.823 4.936C256.41 4.552 257.076 4.36 257.823 4.36C258.218 4.36 258.596 4.424 258.959 4.552C259.332 4.66933 259.663 4.83467 259.951 5.048C260.25 5.26133 260.49 5.50133 260.671 5.768C260.852 6.024 260.954 6.296 260.975 6.584L260.399 6.68V1.16H262.671V13H260.527L260.431 11.048L260.879 11.096C260.858 11.3627 260.762 11.6187 260.591 11.864C260.42 12.1093 260.191 12.3333 259.903 12.536C259.626 12.728 259.306 12.8827 258.943 13C258.591 13.1067 258.218 13.16 257.823 13.16ZM258.335 11.272C258.762 11.272 259.135 11.1653 259.455 10.952C259.775 10.7387 260.026 10.4453 260.207 10.072C260.388 9.69867 260.479 9.26133 260.479 8.76C260.479 8.26933 260.388 7.83733 260.207 7.464C260.026 7.08 259.775 6.78667 259.455 6.584C259.135 6.37067 258.762 6.264 258.335 6.264C257.908 6.264 257.535 6.37067 257.215 6.584C256.906 6.78667 256.66 7.08 256.479 7.464C256.308 7.83733 256.223 8.26933 256.223 8.76C256.223 9.26133 256.308 9.69867 256.479 10.072C256.66 10.4453 256.906 10.7387 257.215 10.952C257.535 11.1653 257.908 11.272 258.335 11.272ZM268.054 13.16C267.35 13.16 266.715 12.968 266.15 12.584C265.585 12.2 265.137 11.6773 264.806 11.016C264.475 10.3547 264.31 9.59733 264.31 8.744C264.31 7.89067 264.475 7.13867 264.806 6.488C265.147 5.82667 265.606 5.30933 266.182 4.936C266.758 4.552 267.414 4.36 268.15 4.36C268.566 4.36 268.945 4.424 269.286 4.552C269.638 4.66933 269.942 4.83467 270.198 5.048C270.465 5.26133 270.689 5.50667 270.87 5.784C271.051 6.06133 271.179 6.36 271.254 6.68L270.774 6.6V4.536H273.03V13H270.742V10.968L271.254 10.92C271.169 11.2187 271.03 11.5013 270.838 11.768C270.646 12.0347 270.406 12.2747 270.118 12.488C269.841 12.6907 269.526 12.856 269.174 12.984C268.822 13.1013 268.449 13.16 268.054 13.16ZM268.678 11.192C269.105 11.192 269.478 11.0907 269.798 10.888C270.118 10.6853 270.363 10.4027 270.534 10.04C270.715 9.66667 270.806 9.23467 270.806 8.744C270.806 8.264 270.715 7.84267 270.534 7.48C270.363 7.11733 270.118 6.83467 269.798 6.632C269.478 6.41867 269.105 6.312 268.678 6.312C268.262 6.312 267.894 6.41867 267.574 6.632C267.265 6.83467 267.019 7.11733 266.838 7.48C266.657 7.84267 266.566 8.264 266.566 8.744C266.566 9.23467 266.657 9.66667 266.838 10.04C267.019 10.4027 267.265 10.6853 267.574 10.888C267.894 11.0907 268.262 11.192 268.678 11.192ZM276.304 16.68L278.16 12.328L278.192 13.64L274.064 4.536H276.64L278.704 9.416C278.79 9.59733 278.87 9.81067 278.944 10.056C279.03 10.2907 279.099 10.52 279.152 10.744L278.768 10.904C278.832 10.7227 278.907 10.5147 278.992 10.28C279.078 10.0453 279.163 9.79467 279.248 9.528L281.024 4.536H283.616L280.064 13L278.608 16.68H276.304Z" fill="#212B36"/>
<path d="M118.184 13V1.8H120.584V13H118.184ZM111.128 13V1.8H113.528V13H111.128ZM112.088 8.504L112.104 6.328H119.416V8.504H112.088ZM126.095 13.16C125.476 13.16 124.943 13.0267 124.495 12.76C124.058 12.4827 123.716 12.0933 123.471 11.592C123.236 11.08 123.119 10.4667 123.119 9.752V4.536H125.391V9.384C125.391 9.768 125.455 10.104 125.583 10.392C125.711 10.6693 125.892 10.8827 126.127 11.032C126.362 11.1813 126.65 11.256 126.991 11.256C127.236 11.256 127.466 11.2187 127.679 11.144C127.892 11.0587 128.074 10.9413 128.223 10.792C128.372 10.6427 128.49 10.4667 128.575 10.264C128.66 10.0613 128.703 9.84267 128.703 9.608V4.536H130.975V13H128.815L128.735 11.256L129.151 11.064C129.023 11.4587 128.81 11.816 128.511 12.136C128.212 12.456 127.855 12.7067 127.439 12.888C127.023 13.0693 126.575 13.16 126.095 13.16ZM133.245 13V4.536H135.437L135.485 6.152L135.149 6.216C135.266 5.93867 135.421 5.688 135.613 5.464C135.805 5.24 136.029 5.048 136.285 4.888C136.552 4.728 136.829 4.60533 137.117 4.52C137.405 4.424 137.693 4.376 137.981 4.376C138.418 4.376 138.813 4.44533 139.165 4.584C139.517 4.72267 139.816 4.94133 140.061 5.24C140.306 5.528 140.498 5.912 140.637 6.392L140.285 6.36L140.397 6.104C140.536 5.848 140.712 5.61867 140.925 5.416C141.138 5.20267 141.378 5.02133 141.645 4.872C141.912 4.712 142.189 4.58933 142.477 4.504C142.765 4.41867 143.048 4.376 143.325 4.376C143.986 4.376 144.536 4.50933 144.973 4.776C145.41 5.032 145.736 5.42133 145.949 5.944C146.173 6.46667 146.285 7.10667 146.285 7.864V13H144.013V8.024C144.013 7.64 143.96 7.32533 143.853 7.08C143.746 6.83467 143.592 6.65333 143.389 6.536C143.186 6.408 142.925 6.344 142.605 6.344C142.36 6.344 142.13 6.38667 141.917 6.472C141.714 6.54667 141.533 6.65867 141.373 6.808C141.224 6.94667 141.106 7.112 141.021 7.304C140.936 7.496 140.893 7.70933 140.893 7.944V13H138.621V8.008C138.621 7.656 138.562 7.35733 138.445 7.112C138.338 6.856 138.184 6.664 137.981 6.536C137.778 6.408 137.528 6.344 137.229 6.344C136.984 6.344 136.754 6.38667 136.541 6.472C136.338 6.54667 136.162 6.65867 136.013 6.808C135.864 6.94667 135.741 7.112 135.645 7.304C135.56 7.496 135.517 7.704 135.517 7.928V13H133.245ZM152.385 13.16C151.521 13.16 150.747 12.9733 150.065 12.6C149.393 12.216 148.859 11.6933 148.465 11.032C148.081 10.3707 147.889 9.61333 147.889 8.76C147.889 7.90667 148.081 7.15467 148.465 6.504C148.859 5.84267 149.393 5.32 150.065 4.936C150.747 4.552 151.521 4.36 152.385 4.36C153.238 4.36 154.001 4.552 154.673 4.936C155.355 5.32 155.889 5.84267 156.273 6.504C156.657 7.15467 156.849 7.90667 156.849 8.76C156.849 9.61333 156.657 10.3707 156.273 11.032C155.889 11.6933 155.355 12.216 154.673 12.6C154.001 12.9733 153.238 13.16 152.385 13.16ZM152.385 11.176C152.801 11.176 153.174 11.0747 153.505 10.872C153.835 10.6587 154.091 10.3707 154.273 10.008C154.465 9.63467 154.561 9.21867 154.561 8.76C154.561 8.29067 154.465 7.87467 154.273 7.512C154.091 7.13867 153.835 6.85067 153.505 6.648C153.174 6.43467 152.801 6.328 152.385 6.328C151.958 6.328 151.579 6.43467 151.249 6.648C150.918 6.86133 150.657 7.14933 150.465 7.512C150.273 7.87467 150.182 8.29067 150.193 8.76C150.182 9.21867 150.273 9.63467 150.465 10.008C150.657 10.3707 150.918 10.6587 151.249 10.872C151.579 11.0747 151.958 11.176 152.385 11.176ZM158.558 13V4.536H160.75L160.83 7.256L160.446 6.696C160.574 6.25867 160.782 5.864 161.07 5.512C161.358 5.14933 161.694 4.86667 162.078 4.664C162.473 4.46133 162.883 4.36 163.31 4.36C163.491 4.36 163.667 4.376 163.838 4.408C164.009 4.44 164.153 4.47733 164.27 4.52L163.662 7.016C163.534 6.952 163.379 6.89867 163.198 6.856C163.017 6.80267 162.83 6.776 162.638 6.776C162.382 6.776 162.142 6.824 161.918 6.92C161.705 7.00533 161.518 7.13333 161.358 7.304C161.198 7.464 161.07 7.656 160.974 7.88C160.889 8.104 160.846 8.34933 160.846 8.616V13H158.558Z" fill="url(#paint0_linear_236_783)"/>
<defs>
<linearGradient id="paint0_linear_236_783" x1="69.8074" y1="1" x2="69.8074" y2="15" gradientUnits="userSpaceOnUse">
<stop stop-color="#007991"/>
<stop offset="1" stop-color="#78FFD6"/>
</linearGradient>
</defs>
</svg>
