<svg width="248" height="64" viewBox="0 0 248 64" fill="none" xmlns="http://www.w3.org/2000/svg">
<path d="M9.096 18.144C7.736 18.144 6.52 17.864 5.448 17.304C4.392 16.728 3.56 15.944 2.952 14.952C2.344 13.944 2.04 12.808 2.04 11.544V1.176H5.664V11.328C5.664 12 5.816 12.608 6.12 13.152C6.424 13.68 6.832 14.104 7.344 14.424C7.872 14.744 8.456 14.904 9.096 14.904C9.752 14.904 10.344 14.744 10.872 14.424C11.416 14.104 11.84 13.68 12.144 13.152C12.464 12.608 12.624 12 12.624 11.328V1.176H16.128V11.544C16.128 12.808 15.824 13.944 15.216 14.952C14.608 15.944 13.768 16.728 12.696 17.304C11.64 17.864 10.44 18.144 9.096 18.144ZM19.8681 18V5.304H23.1321L23.2281 7.896L22.5561 8.184C22.7321 7.608 23.0441 7.088 23.4921 6.624C23.9561 6.144 24.5081 5.76 25.1481 5.472C25.7881 5.184 26.4601 5.04 27.1641 5.04C28.1241 5.04 28.9241 5.232 29.5641 5.616C30.2201 6 30.7081 6.584 31.0281 7.368C31.3641 8.136 31.5321 9.088 31.5321 10.224V18H28.1241V10.488C28.1241 9.912 28.0441 9.432 27.8841 9.048C27.7241 8.664 27.4761 8.384 27.1401 8.208C26.8201 8.016 26.4201 7.936 25.9401 7.968C25.5561 7.968 25.1961 8.032 24.8601 8.16C24.5401 8.272 24.2601 8.44 24.0201 8.664C23.7961 8.888 23.6121 9.144 23.4681 9.432C23.3401 9.72 23.2761 10.032 23.2761 10.368V18H21.5961C21.2281 18 20.9001 18 20.6121 18C20.3241 18 20.0761 18 19.8681 18ZM34.8218 18V0.24H38.2298V18H34.8218ZM47.478 18.24C46.102 18.24 44.902 17.96 43.878 17.4C42.854 16.84 42.054 16.072 41.478 15.096C40.902 14.12 40.614 13 40.614 11.736C40.614 10.76 40.774 9.864 41.094 9.048C41.414 8.232 41.862 7.528 42.438 6.936C43.014 6.328 43.694 5.864 44.478 5.544C45.278 5.208 46.142 5.04 47.07 5.04C47.934 5.04 48.734 5.2 49.47 5.52C50.206 5.824 50.838 6.264 51.366 6.84C51.91 7.4 52.326 8.064 52.614 8.832C52.902 9.6 53.03 10.44 52.998 11.352L52.974 12.408H42.774L42.222 10.32H50.166L49.782 10.752V10.224C49.75 9.792 49.606 9.4 49.35 9.048C49.11 8.696 48.798 8.424 48.414 8.232C48.03 8.04 47.598 7.944 47.118 7.944C46.414 7.944 45.814 8.08 45.318 8.352C44.838 8.624 44.47 9.024 44.214 9.552C43.958 10.08 43.83 10.72 43.83 11.472C43.83 12.24 43.99 12.904 44.31 13.464C44.646 14.024 45.11 14.464 45.702 14.784C46.31 15.088 47.022 15.24 47.838 15.24C48.398 15.24 48.91 15.152 49.374 14.976C49.838 14.8 50.334 14.496 50.862 14.064L52.494 16.344C52.03 16.76 51.518 17.112 50.958 17.4C50.398 17.672 49.822 17.88 49.23 18.024C48.638 18.168 48.054 18.24 47.478 18.24ZM60.2685 18.24C59.2125 18.24 58.2605 17.952 57.4125 17.376C56.5645 16.8 55.8925 16.016 55.3965 15.024C54.9005 14.032 54.6525 12.896 54.6525 11.616C54.6525 10.336 54.9005 9.208 55.3965 8.232C55.9085 7.24 56.5965 6.464 57.4605 5.904C58.3245 5.328 59.3085 5.04 60.4125 5.04C61.0365 5.04 61.6045 5.136 62.1165 5.328C62.6445 5.504 63.1005 5.752 63.4845 6.072C63.8845 6.392 64.2205 6.76 64.4925 7.176C64.7645 7.592 64.9565 8.04 65.0685 8.52L64.3485 8.4V5.304H67.7325V18H64.3005V14.952L65.0685 14.88C64.9405 15.328 64.7325 15.752 64.4445 16.152C64.1565 16.552 63.7965 16.912 63.3645 17.232C62.9485 17.536 62.4765 17.784 61.9485 17.976C61.4205 18.152 60.8605 18.24 60.2685 18.24ZM61.2045 15.288C61.8445 15.288 62.4045 15.136 62.8845 14.832C63.3645 14.528 63.7325 14.104 63.9885 13.56C64.2605 13 64.3965 12.352 64.3965 11.616C64.3965 10.896 64.2605 10.264 63.9885 9.72C63.7325 9.176 63.3645 8.752 62.8845 8.448C62.4045 8.128 61.8445 7.968 61.2045 7.968C60.5805 7.968 60.0285 8.128 59.5485 8.448C59.0845 8.752 58.7165 9.176 58.4445 9.72C58.1725 10.264 58.0365 10.896 58.0365 11.616C58.0365 12.352 58.1725 13 58.4445 13.56C58.7165 14.104 59.0845 14.528 59.5485 14.832C60.0285 15.136 60.5805 15.288 61.2045 15.288ZM75.4213 18.24C74.2373 18.24 73.1813 18.048 72.2533 17.664C71.3413 17.264 70.6053 16.72 70.0453 16.032L72.1573 14.208C72.6533 14.736 73.2053 15.12 73.8133 15.36C74.4213 15.584 75.0293 15.696 75.6373 15.696C75.8773 15.696 76.0933 15.672 76.2853 15.624C76.4933 15.56 76.6693 15.48 76.8133 15.384C76.9573 15.272 77.0613 15.144 77.1253 15C77.2053 14.84 77.2453 14.672 77.2453 14.496C77.2453 14.144 77.1013 13.864 76.8133 13.656C76.6533 13.576 76.4053 13.48 76.0693 13.368C75.7333 13.24 75.3013 13.104 74.7733 12.96C73.9573 12.752 73.2613 12.512 72.6853 12.24C72.1253 11.952 71.6773 11.632 71.3413 11.28C71.0533 10.944 70.8293 10.584 70.6693 10.2C70.5253 9.8 70.4533 9.36 70.4533 8.88C70.4533 8.304 70.5813 7.784 70.8373 7.32C71.0933 6.84 71.4453 6.432 71.8933 6.096C72.3573 5.76 72.8853 5.504 73.4773 5.328C74.0693 5.136 74.6933 5.04 75.3493 5.04C76.0053 5.04 76.6453 5.12 77.2693 5.28C77.8933 5.44 78.4693 5.672 78.9973 5.976C79.5413 6.264 80.0133 6.608 80.4133 7.008L78.5893 9.024C78.3013 8.752 77.9733 8.504 77.6053 8.28C77.2533 8.056 76.8853 7.88 76.5013 7.752C76.1173 7.624 75.7733 7.56 75.4693 7.56C75.1973 7.56 74.9493 7.584 74.7253 7.632C74.5173 7.68 74.3413 7.752 74.1973 7.848C74.0533 7.944 73.9413 8.072 73.8613 8.232C73.7973 8.376 73.7653 8.536 73.7653 8.712C73.7653 8.888 73.8053 9.056 73.8853 9.216C73.9813 9.376 74.1093 9.512 74.2693 9.624C74.4453 9.72 74.7013 9.832 75.0373 9.96C75.3893 10.088 75.8613 10.232 76.4533 10.392C77.2213 10.6 77.8693 10.832 78.3973 11.088C78.9413 11.344 79.3733 11.64 79.6933 11.976C79.9653 12.264 80.1653 12.592 80.2933 12.96C80.4213 13.328 80.4853 13.736 80.4853 14.184C80.4853 14.968 80.2613 15.672 79.8133 16.296C79.3813 16.904 78.7813 17.384 78.0133 17.736C77.2453 18.072 76.3813 18.24 75.4213 18.24ZM82.9149 18V0.24H86.2749V7.896L85.6029 8.184C85.7789 7.608 86.0909 7.088 86.5389 6.624C87.0029 6.144 87.5549 5.76 88.1949 5.472C88.8349 5.184 89.5069 5.04 90.2109 5.04C91.1709 5.04 91.9709 5.232 92.6109 5.616C93.2669 6 93.7549 6.584 94.0749 7.368C94.4109 8.136 94.5789 9.088 94.5789 10.224V18H91.1709V10.488C91.1709 9.912 91.0909 9.432 90.9309 9.048C90.7709 8.664 90.5229 8.384 90.1869 8.208C89.8669 8.016 89.4669 7.936 88.9869 7.968C88.6029 7.968 88.2429 8.032 87.9069 8.16C87.5869 8.272 87.3069 8.44 87.0669 8.664C86.8429 8.888 86.6589 9.144 86.5149 9.432C86.3869 9.72 86.3229 10.032 86.3229 10.368V18H84.6429C84.2749 18 83.9469 18 83.6589 18C83.3709 18 83.1229 18 82.9149 18ZM106.98 23.52L109.764 16.992L109.812 18.96L103.62 5.304H107.484L110.58 12.624C110.708 12.896 110.828 13.216 110.94 13.584C111.068 13.936 111.172 14.28 111.252 14.616L110.676 14.856C110.772 14.584 110.884 14.272 111.012 13.92C111.14 13.568 111.268 13.192 111.396 12.792L114.06 5.304H117.948L112.62 18L110.436 23.52H106.98ZM125.452 18.24C124.156 18.24 122.996 17.96 121.972 17.4C120.964 16.824 120.164 16.04 119.572 15.048C118.996 14.056 118.708 12.92 118.708 11.64C118.708 10.36 118.996 9.232 119.572 8.256C120.164 7.264 120.964 6.48 121.972 5.904C122.996 5.328 124.156 5.04 125.452 5.04C126.732 5.04 127.876 5.328 128.884 5.904C129.908 6.48 130.708 7.264 131.284 8.256C131.86 9.232 132.148 10.36 132.148 11.64C132.148 12.92 131.86 14.056 131.284 15.048C130.708 16.04 129.908 16.824 128.884 17.4C127.876 17.96 126.732 18.24 125.452 18.24ZM125.452 15.264C126.076 15.264 126.636 15.112 127.132 14.808C127.628 14.488 128.012 14.056 128.284 13.512C128.572 12.952 128.716 12.328 128.716 11.64C128.716 10.936 128.572 10.312 128.284 9.768C128.012 9.208 127.628 8.776 127.132 8.472C126.636 8.152 126.076 7.992 125.452 7.992C124.812 7.992 124.244 8.152 123.748 8.472C123.252 8.792 122.86 9.224 122.572 9.768C122.284 10.312 122.148 10.936 122.164 11.64C122.148 12.328 122.284 12.952 122.572 13.512C122.86 14.056 123.252 14.488 123.748 14.808C124.244 15.112 124.812 15.264 125.452 15.264ZM139.08 18.24C138.152 18.24 137.352 18.04 136.68 17.64C136.024 17.224 135.512 16.64 135.144 15.888C134.792 15.12 134.616 14.2 134.616 13.128V5.304H138.024V12.576C138.024 13.152 138.12 13.656 138.312 14.088C138.504 14.504 138.776 14.824 139.128 15.048C139.48 15.272 139.912 15.384 140.424 15.384C140.792 15.384 141.136 15.328 141.456 15.216C141.776 15.088 142.048 14.912 142.272 14.688C142.496 14.464 142.672 14.2 142.8 13.896C142.928 13.592 142.992 13.264 142.992 12.912V5.304H146.4V18H143.16L143.04 15.384L143.664 15.096C143.472 15.688 143.152 16.224 142.704 16.704C142.256 17.184 141.72 17.56 141.096 17.832C140.472 18.104 139.8 18.24 139.08 18.24ZM149.829 18V5.304H153.117L153.237 9.384L152.661 8.544C152.853 7.888 153.165 7.296 153.597 6.768C154.029 6.224 154.533 5.8 155.109 5.496C155.701 5.192 156.317 5.04 156.957 5.04C157.229 5.04 157.493 5.064 157.749 5.112C158.005 5.16 158.221 5.216 158.397 5.28L157.485 9.024C157.293 8.928 157.061 8.848 156.789 8.784C156.517 8.704 156.237 8.664 155.949 8.664C155.565 8.664 155.205 8.736 154.869 8.88C154.549 9.008 154.269 9.2 154.029 9.456C153.789 9.696 153.597 9.984 153.453 10.32C153.325 10.656 153.261 11.024 153.261 11.424V18H149.829ZM7.632 58.24C6.592 58.24 5.64 58.112 4.776 57.856C3.928 57.6 3.168 57.224 2.496 56.728C1.84 56.232 1.248 55.632 0.72 54.928L2.976 52.36C3.76 53.448 4.536 54.192 5.304 54.592C6.088 54.976 6.936 55.168 7.848 55.168C8.344 55.168 8.784 55.104 9.168 54.976C9.568 54.832 9.88 54.632 10.104 54.376C10.328 54.12 10.44 53.816 10.44 53.464C10.44 53.208 10.384 52.976 10.272 52.768C10.16 52.544 10 52.352 9.792 52.192C9.584 52.016 9.336 51.864 9.048 51.736C8.76 51.592 8.44 51.472 8.088 51.376C7.736 51.264 7.352 51.176 6.936 51.112C6.04 50.904 5.256 50.656 4.584 50.368C3.912 50.064 3.352 49.696 2.904 49.264C2.456 48.816 2.12 48.312 1.896 47.752C1.688 47.192 1.584 46.56 1.584 45.856C1.584 45.136 1.744 44.472 2.064 43.864C2.384 43.24 2.824 42.704 3.384 42.256C3.96 41.808 4.616 41.464 5.352 41.224C6.104 40.984 6.896 40.864 7.728 40.864C8.752 40.864 9.648 40.984 10.416 41.224C11.184 41.448 11.848 41.776 12.408 42.208C12.984 42.64 13.464 43.168 13.848 43.792L11.568 46C11.232 45.552 10.864 45.176 10.464 44.872C10.08 44.568 9.656 44.344 9.192 44.2C8.744 44.04 8.28 43.96 7.8 43.96C7.272 43.96 6.816 44.032 6.432 44.176C6.048 44.304 5.744 44.496 5.52 44.752C5.312 45.008 5.208 45.32 5.208 45.688C5.208 45.976 5.28 46.232 5.424 46.456C5.568 46.68 5.776 46.88 6.048 47.056C6.32 47.216 6.648 47.36 7.032 47.488C7.416 47.616 7.84 47.728 8.304 47.824C9.184 48 9.976 48.232 10.68 48.52C11.384 48.808 11.984 49.16 12.48 49.576C12.992 49.976 13.384 50.456 13.656 51.016C13.928 51.56 14.064 52.176 14.064 52.864C14.064 54 13.792 54.968 13.248 55.768C12.704 56.568 11.952 57.184 10.992 57.616C10.032 58.032 8.912 58.24 7.632 58.24ZM17.1326 58V45.304H20.5406V58H17.1326ZM18.8126 42.688C18.1566 42.688 17.6446 42.528 17.2766 42.208C16.9086 41.888 16.7246 41.432 16.7246 40.84C16.7246 40.296 16.9086 39.856 17.2766 39.52C17.6606 39.168 18.1726 38.992 18.8126 38.992C19.4686 38.992 19.9806 39.16 20.3486 39.496C20.7166 39.816 20.9006 40.264 20.9006 40.84C20.9006 41.4 20.7086 41.848 20.3246 42.184C19.9566 42.52 19.4526 42.688 18.8126 42.688ZM29.9646 63.52C28.9566 63.52 27.9646 63.368 26.9886 63.064C26.0126 62.776 25.2206 62.4 24.6126 61.936L25.8126 59.488C26.1326 59.712 26.5006 59.912 26.9166 60.088C27.3326 60.264 27.7646 60.4 28.2126 60.496C28.6766 60.592 29.1486 60.64 29.6286 60.64C30.4606 60.64 31.1406 60.512 31.6686 60.256C32.2126 60 32.6206 59.616 32.8926 59.104C33.1646 58.608 33.3006 57.968 33.3006 57.184V54.976L33.8766 55.096C33.7806 55.624 33.5166 56.112 33.0846 56.56C32.6526 56.992 32.1086 57.344 31.4526 57.616C30.7966 57.872 30.1246 58 29.4366 58C28.2526 58 27.2046 57.728 26.2926 57.184C25.3806 56.64 24.6606 55.888 24.1326 54.928C23.6046 53.968 23.3406 52.864 23.3406 51.616C23.3406 50.336 23.5966 49.208 24.1086 48.232C24.6366 47.24 25.3486 46.464 26.2446 45.904C27.1566 45.328 28.1886 45.04 29.3406 45.04C29.8206 45.04 30.2766 45.096 30.7086 45.208C31.1566 45.32 31.5646 45.48 31.9326 45.688C32.3166 45.88 32.6526 46.104 32.9406 46.36C33.2446 46.6 33.4926 46.864 33.6846 47.152C33.8766 47.44 33.9966 47.728 34.0446 48.016L33.3486 48.208L33.4446 45.304H36.7086V57.04C36.7086 58.08 36.5566 59 36.2526 59.8C35.9486 60.6 35.5006 61.272 34.9086 61.816C34.3326 62.376 33.6206 62.8 32.7726 63.088C31.9406 63.376 31.0046 63.52 29.9646 63.52ZM30.0606 55.264C30.7326 55.264 31.3166 55.112 31.8126 54.808C32.3246 54.504 32.7166 54.08 32.9886 53.536C33.2606 52.992 33.3966 52.352 33.3966 51.616C33.3966 50.896 33.2606 50.264 32.9886 49.72C32.7166 49.16 32.3246 48.728 31.8126 48.424C31.3166 48.12 30.7326 47.968 30.0606 47.968C29.4046 47.968 28.8206 48.128 28.3086 48.448C27.8126 48.752 27.4286 49.176 27.1566 49.72C26.8846 50.264 26.7486 50.896 26.7486 51.616C26.7486 52.336 26.8846 52.976 27.1566 53.536C27.4286 54.08 27.8126 54.504 28.3086 54.808C28.8206 55.112 29.4046 55.264 30.0606 55.264ZM40.0946 58V45.304H43.3586L43.4546 47.896L42.7826 48.184C42.9586 47.608 43.2706 47.088 43.7186 46.624C44.1826 46.144 44.7346 45.76 45.3746 45.472C46.0146 45.184 46.6866 45.04 47.3906 45.04C48.3506 45.04 49.1506 45.232 49.7906 45.616C50.4466 46 50.9346 46.584 51.2546 47.368C51.5906 48.136 51.7586 49.088 51.7586 50.224V58H48.3506V50.488C48.3506 49.912 48.2706 49.432 48.1106 49.048C47.9506 48.664 47.7026 48.384 47.3666 48.208C47.0466 48.016 46.6466 47.936 46.1666 47.968C45.7826 47.968 45.4226 48.032 45.0866 48.16C44.7666 48.272 44.4866 48.44 44.2466 48.664C44.0226 48.888 43.8386 49.144 43.6946 49.432C43.5666 49.72 43.5026 50.032 43.5026 50.368V58H41.8226C41.4546 58 41.1266 58 40.8386 58C40.5506 58 40.3026 58 40.0946 58ZM59.3923 58.24C58.4643 58.24 57.6643 58.04 56.9923 57.64C56.3363 57.224 55.8243 56.64 55.4563 55.888C55.1043 55.12 54.9283 54.2 54.9283 53.128V45.304H58.3363V52.576C58.3363 53.152 58.4323 53.656 58.6243 54.088C58.8163 54.504 59.0883 54.824 59.4403 55.048C59.7923 55.272 60.2243 55.384 60.7363 55.384C61.1043 55.384 61.4483 55.328 61.7683 55.216C62.0883 55.088 62.3603 54.912 62.5843 54.688C62.8083 54.464 62.9843 54.2 63.1123 53.896C63.2403 53.592 63.3043 53.264 63.3043 52.912V45.304H66.7123V58H63.4723L63.3523 55.384L63.9763 55.096C63.7843 55.688 63.4643 56.224 63.0163 56.704C62.5683 57.184 62.0323 57.56 61.4083 57.832C60.7843 58.104 60.1123 58.24 59.3923 58.24ZM70.1415 63.28V45.304H73.4295L73.5255 48.16L72.9015 47.944C73.0135 47.432 73.2855 46.96 73.7175 46.528C74.1655 46.096 74.7175 45.744 75.3735 45.472C76.0295 45.2 76.7175 45.064 77.4375 45.064C78.5415 45.064 79.5175 45.352 80.3655 45.928C81.2295 46.488 81.9095 47.264 82.4055 48.256C82.9175 49.232 83.1735 50.36 83.1735 51.64C83.1735 52.904 82.9255 54.032 82.4295 55.024C81.9335 56.016 81.2535 56.8 80.3895 57.376C79.5255 57.936 78.5415 58.216 77.4375 58.216C76.7015 58.216 75.9975 58.08 75.3255 57.808C74.6695 57.52 74.1095 57.144 73.6455 56.68C73.1815 56.216 72.8935 55.72 72.7815 55.192L73.5735 54.856V63.28H70.1415ZM76.6695 55.288C77.2935 55.288 77.8455 55.136 78.3255 54.832C78.8055 54.528 79.1815 54.104 79.4535 53.56C79.7255 53 79.8615 52.36 79.8615 51.64C79.8615 50.92 79.7255 50.288 79.4535 49.744C79.1815 49.2 78.8055 48.776 78.3255 48.472C77.8615 48.168 77.3095 48.016 76.6695 48.016C76.0295 48.016 75.4695 48.168 74.9895 48.472C74.5095 48.76 74.1335 49.184 73.8615 49.744C73.5895 50.288 73.4535 50.92 73.4535 51.64C73.4535 52.36 73.5895 53 73.8615 53.56C74.1335 54.104 74.5095 54.528 74.9895 54.832C75.4695 55.136 76.0295 55.288 76.6695 55.288ZM97.0943 58V44.44H92.1982V41.2H105.734V44.44H100.694V58H97.0943ZM111.741 58.24C110.445 58.24 109.285 57.96 108.261 57.4C107.253 56.824 106.453 56.04 105.861 55.048C105.285 54.056 104.997 52.92 104.997 51.64C104.997 50.36 105.285 49.232 105.861 48.256C106.453 47.264 107.253 46.48 108.261 45.904C109.285 45.328 110.445 45.04 111.741 45.04C113.021 45.04 114.165 45.328 115.173 45.904C116.197 46.48 116.997 47.264 117.573 48.256C118.149 49.232 118.437 50.36 118.437 51.64C118.437 52.92 118.149 54.056 117.573 55.048C116.997 56.04 116.197 56.824 115.173 57.4C114.165 57.96 113.021 58.24 111.741 58.24ZM111.741 55.264C112.365 55.264 112.925 55.112 113.421 54.808C113.917 54.488 114.301 54.056 114.573 53.512C114.861 52.952 115.005 52.328 115.005 51.64C115.005 50.936 114.861 50.312 114.573 49.768C114.301 49.208 113.917 48.776 113.421 48.472C112.925 48.152 112.365 47.992 111.741 47.992C111.101 47.992 110.533 48.152 110.037 48.472C109.541 48.792 109.149 49.224 108.861 49.768C108.573 50.312 108.437 50.936 108.453 51.64C108.437 52.328 108.573 52.952 108.861 53.512C109.149 54.056 109.541 54.488 110.037 54.808C110.533 55.112 111.101 55.264 111.741 55.264ZM125.969 58.24C124.865 58.24 123.873 57.96 122.993 57.4C122.113 56.824 121.417 56.048 120.905 55.072C120.409 54.08 120.161 52.936 120.161 51.64C120.161 50.376 120.409 49.248 120.905 48.256C121.417 47.264 122.105 46.48 122.969 45.904C123.849 45.328 124.849 45.04 125.969 45.04C126.561 45.04 127.129 45.136 127.673 45.328C128.233 45.504 128.729 45.752 129.161 46.072C129.609 46.392 129.969 46.752 130.241 47.152C130.513 47.536 130.665 47.944 130.697 48.376L129.833 48.52V40.24H133.241V58H130.025L129.881 55.072L130.553 55.144C130.521 55.544 130.377 55.928 130.121 56.296C129.865 56.664 129.521 57 129.089 57.304C128.673 57.592 128.193 57.824 127.649 58C127.121 58.16 126.561 58.24 125.969 58.24ZM126.737 55.408C127.377 55.408 127.937 55.248 128.417 54.928C128.897 54.608 129.273 54.168 129.545 53.608C129.817 53.048 129.953 52.392 129.953 51.64C129.953 50.904 129.817 50.256 129.545 49.696C129.273 49.12 128.897 48.68 128.417 48.376C127.937 48.056 127.377 47.896 126.737 47.896C126.097 47.896 125.537 48.056 125.057 48.376C124.593 48.68 124.225 49.12 123.953 49.696C123.697 50.256 123.569 50.904 123.569 51.64C123.569 52.392 123.697 53.048 123.953 53.608C124.225 54.168 124.593 54.608 125.057 54.928C125.537 55.248 126.097 55.408 126.737 55.408ZM141.315 58.24C140.259 58.24 139.307 57.952 138.459 57.376C137.611 56.8 136.939 56.016 136.443 55.024C135.947 54.032 135.699 52.896 135.699 51.616C135.699 50.336 135.947 49.208 136.443 48.232C136.955 47.24 137.643 46.464 138.507 45.904C139.371 45.328 140.355 45.04 141.459 45.04C142.083 45.04 142.651 45.136 143.163 45.328C143.691 45.504 144.147 45.752 144.531 46.072C144.931 46.392 145.267 46.76 145.539 47.176C145.811 47.592 146.003 48.04 146.115 48.52L145.395 48.4V45.304H148.779V58H145.347V54.952L146.115 54.88C145.987 55.328 145.779 55.752 145.491 56.152C145.203 56.552 144.843 56.912 144.411 57.232C143.995 57.536 143.523 57.784 142.995 57.976C142.467 58.152 141.907 58.24 141.315 58.24ZM142.251 55.288C142.891 55.288 143.451 55.136 143.931 54.832C144.411 54.528 144.779 54.104 145.035 53.56C145.307 53 145.443 52.352 145.443 51.616C145.443 50.896 145.307 50.264 145.035 49.72C144.779 49.176 144.411 48.752 143.931 48.448C143.451 48.128 142.891 47.968 142.251 47.968C141.627 47.968 141.075 48.128 140.595 48.448C140.131 48.752 139.763 49.176 139.491 49.72C139.219 50.264 139.083 50.896 139.083 51.616C139.083 52.352 139.219 53 139.491 53.56C139.763 54.104 140.131 54.528 140.595 54.832C141.075 55.136 141.627 55.288 142.251 55.288ZM153.691 63.52L156.475 56.992L156.523 58.96L150.331 45.304H154.195L157.291 52.624C157.419 52.896 157.539 53.216 157.651 53.584C157.779 53.936 157.883 54.28 157.963 54.616L157.387 54.856C157.483 54.584 157.595 54.272 157.723 53.92C157.851 53.568 157.979 53.192 158.107 52.792L160.771 45.304H164.659L159.331 58L157.147 63.52H153.691Z" fill="#212B36"/>
<path d="M178.776 18V1.2H182.376V18H178.776ZM168.192 18V1.2H171.792V18H168.192ZM169.632 11.256L169.656 7.992H180.624V11.256H169.632ZM190.642 18.24C189.714 18.24 188.914 18.04 188.242 17.64C187.586 17.224 187.074 16.64 186.706 15.888C186.354 15.12 186.178 14.2 186.178 13.128V5.304H189.586V12.576C189.586 13.152 189.682 13.656 189.874 14.088C190.066 14.504 190.338 14.824 190.69 15.048C191.042 15.272 191.474 15.384 191.986 15.384C192.354 15.384 192.698 15.328 193.018 15.216C193.338 15.088 193.61 14.912 193.834 14.688C194.058 14.464 194.234 14.2 194.362 13.896C194.49 13.592 194.554 13.264 194.554 12.912V5.304H197.962V18H194.722L194.602 15.384L195.226 15.096C195.034 15.688 194.714 16.224 194.266 16.704C193.818 17.184 193.282 17.56 192.658 17.832C192.034 18.104 191.362 18.24 190.642 18.24ZM201.368 18V5.304H204.656L204.728 7.728L204.224 7.824C204.4 7.408 204.632 7.032 204.92 6.696C205.208 6.36 205.544 6.072 205.928 5.832C206.328 5.592 206.744 5.408 207.176 5.28C207.608 5.136 208.04 5.064 208.472 5.064C209.128 5.064 209.72 5.168 210.248 5.376C210.776 5.584 211.224 5.912 211.592 6.36C211.96 6.792 212.248 7.368 212.456 8.088L211.928 8.04L212.096 7.656C212.304 7.272 212.568 6.928 212.888 6.624C213.208 6.304 213.568 6.032 213.968 5.808C214.368 5.568 214.784 5.384 215.216 5.256C215.648 5.128 216.072 5.064 216.488 5.064C217.48 5.064 218.304 5.264 218.96 5.664C219.616 6.048 220.104 6.632 220.424 7.416C220.76 8.2 220.928 9.16 220.928 10.296V18H217.52V10.536C217.52 9.96 217.44 9.488 217.28 9.12C217.12 8.752 216.888 8.48 216.584 8.304C216.28 8.112 215.888 8.016 215.408 8.016C215.04 8.016 214.696 8.08 214.376 8.208C214.072 8.32 213.8 8.488 213.56 8.712C213.336 8.92 213.16 9.168 213.032 9.456C212.904 9.744 212.84 10.064 212.84 10.416V18H209.432V10.512C209.432 9.984 209.344 9.536 209.168 9.168C209.008 8.784 208.776 8.496 208.472 8.304C208.168 8.112 207.792 8.016 207.344 8.016C206.976 8.016 206.632 8.08 206.312 8.208C206.008 8.32 205.744 8.488 205.52 8.712C205.296 8.92 205.112 9.168 204.968 9.456C204.84 9.744 204.776 10.056 204.776 10.392V18H201.368ZM230.077 18.24C228.781 18.24 227.621 17.96 226.597 17.4C225.589 16.824 224.789 16.04 224.197 15.048C223.621 14.056 223.333 12.92 223.333 11.64C223.333 10.36 223.621 9.232 224.197 8.256C224.789 7.264 225.589 6.48 226.597 5.904C227.621 5.328 228.781 5.04 230.077 5.04C231.357 5.04 232.501 5.328 233.509 5.904C234.533 6.48 235.333 7.264 235.909 8.256C236.485 9.232 236.773 10.36 236.773 11.64C236.773 12.92 236.485 14.056 235.909 15.048C235.333 16.04 234.533 16.824 233.509 17.4C232.501 17.96 231.357 18.24 230.077 18.24ZM230.077 15.264C230.701 15.264 231.261 15.112 231.757 14.808C232.253 14.488 232.637 14.056 232.909 13.512C233.197 12.952 233.341 12.328 233.341 11.64C233.341 10.936 233.197 10.312 232.909 9.768C232.637 9.208 232.253 8.776 231.757 8.472C231.261 8.152 230.701 7.992 230.077 7.992C229.437 7.992 228.869 8.152 228.373 8.472C227.877 8.792 227.485 9.224 227.197 9.768C226.909 10.312 226.773 10.936 226.789 11.64C226.773 12.328 226.909 12.952 227.197 13.512C227.485 14.056 227.877 14.488 228.373 14.808C228.869 15.112 229.437 15.264 230.077 15.264ZM239.337 18V5.304H242.625L242.745 9.384L242.169 8.544C242.361 7.888 242.673 7.296 243.105 6.768C243.537 6.224 244.041 5.8 244.617 5.496C245.209 5.192 245.825 5.04 246.465 5.04C246.737 5.04 247.001 5.064 247.257 5.112C247.513 5.16 247.729 5.216 247.905 5.28L246.993 9.024C246.801 8.928 246.569 8.848 246.297 8.784C246.025 8.704 245.745 8.664 245.457 8.664C245.073 8.664 244.713 8.736 244.377 8.88C244.057 9.008 243.777 9.2 243.537 9.456C243.297 9.696 243.105 9.984 242.961 10.32C242.833 10.656 242.769 11.024 242.769 11.424V18H239.337Z" fill="url(#paint0_linear_326_1070)"/>
<defs>
<linearGradient id="paint0_linear_326_1070" x1="203.727" y1="-1.17241" x2="203.727" y2="21.1552" gradientUnits="userSpaceOnUse">
<stop stop-color="#007991"/>
<stop offset="1" stop-color="#78FFD6"/>
</linearGradient>
</defs>
</svg>
