<svg width="26" height="26" viewBox="0 0 26 26" fill="none" xmlns="http://www.w3.org/2000/svg">
<rect width="26" height="26" fill="#F5F5F5"/>
<g clip-path="url(#clip0_0_1)">
<rect width="1512" height="2829" transform="translate(-783 -658)" fill="white"/>
<circle cx="13" cy="13" r="12.5" fill="white" stroke="#F4F5F9"/>
<path d="M10.263 20.8006C8.16022 20.8006 6.20011 20.189 4.55029 19.1337C5.95104 19.2244 8.42304 19.0073 9.96062 17.5407C7.64759 17.4346 6.60446 15.6606 6.4684 14.9025C6.66493 14.9783 7.60224 15.0692 8.13136 14.857C5.47063 14.1898 5.06245 11.8548 5.15315 11.1422C5.65204 11.4909 6.49864 11.6122 6.83123 11.5819C4.35191 9.80794 5.24386 7.13938 5.68228 6.56321C7.46153 9.02822 10.1281 10.4127 13.4269 10.4897C13.3647 10.2169 13.3319 9.93286 13.3319 9.64115C13.3319 7.54768 15.024 5.85059 17.1113 5.85059C18.2019 5.85059 19.1847 6.31388 19.8745 7.05493C20.6033 6.88415 21.7001 6.48438 22.2363 6.13867C21.966 7.10905 21.1246 7.91855 20.6156 8.21859C20.6199 8.22879 20.6115 8.20833 20.6156 8.21859C21.0627 8.15096 22.2724 7.91847 22.7503 7.59425C22.514 8.1394 21.6219 9.04581 20.8898 9.55326C21.026 15.5603 16.43 20.8006 10.263 20.8006Z" fill="#47ACDF"/>
</g>
<defs>
<clipPath id="clip0_0_1">
<rect width="1512" height="2829" fill="white" transform="translate(-783 -658)"/>
</clipPath>
</defs>
</svg>
