<svg width="14" height="13" viewBox="0 0 14 13" fill="none" xmlns="http://www.w3.org/2000/svg">
<path fill-rule="evenodd" clip-rule="evenodd" d="M4.20109 1.26447C4.71569 1.22339 5.20422 1.02098 5.59709 0.686074C6.04082 0.308147 6.60463 0.100586 7.18749 0.100586C7.77034 0.100586 8.33416 0.308147 8.77789 0.686074C9.17076 1.02098 9.65928 1.22339 10.1739 1.26447C10.755 1.31092 11.3006 1.56284 11.7129 1.97509C12.1251 2.38733 12.377 2.93293 12.4235 3.51407C12.4643 4.02847 12.6667 4.51727 13.0019 4.91007C13.3798 5.3538 13.5874 5.91761 13.5874 6.50047C13.5874 7.08333 13.3798 7.64714 13.0019 8.09087C12.667 8.48374 12.4646 8.97227 12.4235 9.48687C12.377 10.068 12.1251 10.6136 11.7129 11.0259C11.3006 11.4381 10.755 11.69 10.1739 11.7365C9.65928 11.7776 9.17076 11.98 8.77789 12.3149C8.33416 12.6928 7.77034 12.9004 7.18749 12.9004C6.60463 12.9004 6.04082 12.6928 5.59709 12.3149C5.20422 11.98 4.71569 11.7776 4.20109 11.7365C3.61994 11.69 3.07434 11.4381 2.6621 11.0259C2.24986 10.6136 1.99793 10.068 1.95149 9.48687C1.9104 8.97227 1.70799 8.48374 1.37309 8.09087C0.995158 7.64714 0.787598 7.08333 0.787598 6.50047C0.787598 5.91761 0.995158 5.3538 1.37309 4.91007C1.70799 4.5172 1.9104 4.02868 1.95149 3.51407C1.99793 2.93293 2.24986 2.38733 2.6621 1.97509C3.07434 1.56284 3.61994 1.31092 4.20109 1.26447ZM10.1531 5.46607C10.2988 5.31519 10.3794 5.11311 10.3776 4.90335C10.3758 4.6936 10.2917 4.49295 10.1433 4.34462C9.99501 4.19629 9.79436 4.11216 9.58461 4.11033C9.37485 4.10851 9.17277 4.18915 9.02189 4.33487L6.38749 6.96927L5.35309 5.93487C5.2022 5.78915 5.00012 5.70851 4.79036 5.71033C4.58061 5.71216 4.37996 5.79629 4.23163 5.94462C4.0833 6.09295 3.99917 6.2936 3.99735 6.50335C3.99552 6.71311 4.07616 6.91519 4.22189 7.06607L5.82189 8.66607C5.97191 8.81605 6.17535 8.9003 6.38749 8.9003C6.59962 8.9003 6.80306 8.81605 6.95309 8.66607L10.1531 5.46607Z" fill="url(#paint0_linear_479_150)"/>
<defs>
<linearGradient id="paint0_linear_479_150" x1="7.18749" y1="0.100586" x2="7.18749" y2="12.9004" gradientUnits="userSpaceOnUse">
<stop stop-color="#1670CD"/>
<stop offset="0.0001" stop-color="#105FB1"/>
<stop offset="1" stop-color="#3497FD"/>
</linearGradient>
</defs>
</svg>
