<svg width="18" height="18" viewBox="0 0 18 18" fill="none" xmlns="http://www.w3.org/2000/svg">
<path d="M3.0001 0.599609C2.36358 0.599609 1.75313 0.852466 1.30304 1.30255C0.852954 1.75264 0.600098 2.36309 0.600098 2.99961V5.39961C0.600098 6.03613 0.852954 6.64658 1.30304 7.09666C1.75313 7.54675 2.36358 7.79961 3.0001 7.79961H5.4001C6.03662 7.79961 6.64707 7.54675 7.09715 7.09666C7.54724 6.64658 7.8001 6.03613 7.8001 5.39961V2.99961C7.8001 2.36309 7.54724 1.75264 7.09715 1.30255C6.64707 0.852466 6.03662 0.599609 5.4001 0.599609H3.0001ZM3.0001 10.1996C2.36358 10.1996 1.75313 10.4525 1.30304 10.9026C0.852954 11.3526 0.600098 11.9631 0.600098 12.5996V14.9996C0.600098 15.6361 0.852954 16.2466 1.30304 16.6967C1.75313 17.1468 2.36358 17.3996 3.0001 17.3996H5.4001C6.03662 17.3996 6.64707 17.1468 7.09715 16.6967C7.54724 16.2466 7.8001 15.6361 7.8001 14.9996V12.5996C7.8001 11.9631 7.54724 11.3526 7.09715 10.9026C6.64707 10.4525 6.03662 10.1996 5.4001 10.1996H3.0001ZM10.2001 2.99961C10.2001 2.36309 10.453 1.75264 10.903 1.30255C11.3531 0.852466 11.9636 0.599609 12.6001 0.599609H15.0001C15.6366 0.599609 16.2471 0.852466 16.6972 1.30255C17.1472 1.75264 17.4001 2.36309 17.4001 2.99961V5.39961C17.4001 6.03613 17.1472 6.64658 16.6972 7.09666C16.2471 7.54675 15.6366 7.79961 15.0001 7.79961H12.6001C11.9636 7.79961 11.3531 7.54675 10.903 7.09666C10.453 6.64658 10.2001 6.03613 10.2001 5.39961V2.99961ZM10.2001 12.5996C10.2001 11.9631 10.453 11.3526 10.903 10.9026C11.3531 10.4525 11.9636 10.1996 12.6001 10.1996H15.0001C15.6366 10.1996 16.2471 10.4525 16.6972 10.9026C17.1472 11.3526 17.4001 11.9631 17.4001 12.5996V14.9996C17.4001 15.6361 17.1472 16.2466 16.6972 16.6967C16.2471 17.1468 15.6366 17.3996 15.0001 17.3996H12.6001C11.9636 17.3996 11.3531 17.1468 10.903 16.6967C10.453 16.2466 10.2001 15.6361 10.2001 14.9996V12.5996Z" fill="url(#paint0_linear_478_73)"/>
<defs>
<linearGradient id="paint0_linear_478_73" x1="9.0001" y1="0.599609" x2="9.0001" y2="17.3996" gradientUnits="userSpaceOnUse">
<stop stop-color="#1670CD"/>
<stop offset="0.0001" stop-color="#105FB1"/>
<stop offset="1" stop-color="#3497FD"/>
</linearGradient>
</defs>
</svg>
