<svg width="20" height="18" viewBox="0 0 20 18" fill="none" xmlns="http://www.w3.org/2000/svg">
<path fill-rule="evenodd" clip-rule="evenodd" d="M2.80002 0.599609C2.1635 0.599609 1.55306 0.852466 1.10297 1.30255C0.652881 1.75264 0.400024 2.36309 0.400024 2.99961V14.9996C0.400024 15.6361 0.652881 16.2466 1.10297 16.6967C1.55306 17.1468 2.1635 17.3996 2.80002 17.3996H17.2C17.8365 17.3996 18.447 17.1468 18.8971 16.6967C19.3472 16.2466 19.6 15.6361 19.6 14.9996V2.99961C19.6 2.36309 19.3472 1.75264 18.8971 1.30255C18.447 0.852466 17.8365 0.599609 17.2 0.599609H2.80002ZM6.40002 2.99961H13.6V7.79961H6.40002V2.99961ZM16 12.5996V14.9996H17.2V12.5996H16ZM13.6 10.1996H6.40002V14.9996H13.6V10.1996ZM16 10.1996H17.2V7.79961H16V10.1996ZM17.2 5.39961V2.99961H16V5.39961H17.2ZM4.00002 2.99961V5.39961H2.80002V2.99961H4.00002ZM4.00002 7.79961H2.80002V10.1996H4.00002V7.79961ZM2.80002 12.5996H4.00002V14.9996H2.80002V12.5996Z" fill="url(#paint0_linear_479_617)"/>
<defs>
<linearGradient id="paint0_linear_479_617" x1="10" y1="0.599609" x2="10" y2="17.3996" gradientUnits="userSpaceOnUse">
<stop stop-color="#1670CD"/>
<stop offset="0.0001" stop-color="#105FB1"/>
<stop offset="1" stop-color="#3497FD"/>
</linearGradient>
</defs>
</svg>
