<svg width="18" height="20" viewBox="0 0 18 20" fill="none" xmlns="http://www.w3.org/2000/svg">
<path d="M16.1999 0.400391C16.5182 0.400391 16.8234 0.526819 17.0484 0.751862C17.2735 0.976906 17.3999 1.28213 17.3999 1.60039L17.3999 4.00039C17.3999 4.31865 17.2735 4.62388 17.0484 4.84892C16.8234 5.07396 16.5182 5.20039 16.1999 5.20039L1.7999 5.20039C1.48164 5.20039 1.17642 5.07396 0.951374 4.84892C0.72633 4.62387 0.599903 4.31865 0.599903 4.00039L0.599903 1.60039C0.599903 1.28213 0.72633 0.976905 0.951374 0.751862C1.17642 0.526818 1.48164 0.40039 1.7999 0.40039L16.1999 0.400391ZM16.1999 7.60039C16.5182 7.60039 16.8234 7.72682 17.0484 7.95186C17.2735 8.17691 17.3999 8.48213 17.3999 8.80039L17.3999 11.2004C17.3999 11.5187 17.2735 11.8239 17.0484 12.0489C16.8234 12.274 16.5182 12.4004 16.1999 12.4004L1.7999 12.4004C1.48164 12.4004 1.17642 12.274 0.951374 12.0489C0.726329 11.8239 0.599903 11.5187 0.599903 11.2004L0.599903 8.80039C0.599903 8.48213 0.726329 8.17691 0.951374 7.95186C1.17642 7.72682 1.48164 7.60039 1.7999 7.60039L16.1999 7.60039ZM17.3999 16.0004C17.3999 15.6821 17.2735 15.3769 17.0484 15.1519C16.8234 14.9268 16.5182 14.8004 16.1999 14.8004L1.7999 14.8004C1.48164 14.8004 1.17642 14.9268 0.951373 15.1519C0.726329 15.3769 0.599902 15.6821 0.599902 16.0004L0.599902 18.4004C0.599902 18.7187 0.726329 19.0239 0.951373 19.2489C1.17642 19.474 1.48164 19.6004 1.7999 19.6004L16.1999 19.6004C16.5182 19.6004 16.8234 19.474 17.0484 19.2489C17.2735 19.0239 17.3999 18.7187 17.3999 18.4004L17.3999 16.0004Z" fill="url(#paint0_linear_478_564)"/>
<defs>
<linearGradient id="paint0_linear_478_564" x1="17.3999" y1="10.0004" x2="0.599903" y2="10.0004" gradientUnits="userSpaceOnUse">
<stop stop-color="#1670CD"/>
<stop offset="0.0001" stop-color="#105FB1"/>
<stop offset="1" stop-color="#3497FD"/>
</linearGradient>
</defs>
</svg>
