<svg width="20" height="20" viewBox="0 0 20 20" fill="none" xmlns="http://www.w3.org/2000/svg">
<path d="M10.8482 0.751612C10.6232 0.526647 10.318 0.400269 9.99981 0.400269C9.68161 0.400269 9.37644 0.526647 9.15141 0.751612L0.751405 9.15161C0.532815 9.37793 0.411862 9.68106 0.414596 9.99569C0.41733 10.3103 0.543533 10.6113 0.766023 10.8338C0.988513 11.0563 1.28949 11.1825 1.60412 11.1852C1.91876 11.188 2.22188 11.067 2.4482 10.8484L2.7998 10.4968V18.4C2.7998 18.7183 2.92623 19.0235 3.15128 19.2485C3.37632 19.4736 3.68155 19.6 3.99981 19.6H6.39981C6.71807 19.6 7.02329 19.4736 7.24833 19.2485C7.47338 19.0235 7.59981 18.7183 7.59981 18.4V16C7.59981 15.6818 7.72623 15.3765 7.95128 15.1515C8.17632 14.9264 8.48155 14.8 8.79981 14.8H11.1998C11.5181 14.8 11.8233 14.9264 12.0483 15.1515C12.2734 15.3765 12.3998 15.6818 12.3998 16V18.4C12.3998 18.7183 12.5262 19.0235 12.7513 19.2485C12.9763 19.4736 13.2815 19.6 13.5998 19.6H15.9998C16.3181 19.6 16.6233 19.4736 16.8483 19.2485C17.0734 19.0235 17.1998 18.7183 17.1998 18.4V10.4968L17.5514 10.8484C17.7777 11.067 18.0809 11.188 18.3955 11.1852C18.7101 11.1825 19.0111 11.0563 19.2336 10.8338C19.4561 10.6113 19.5823 10.3103 19.585 9.99569C19.5877 9.68106 19.4668 9.37793 19.2482 9.15161L10.8482 0.751612Z" fill="url(#paint0_linear_664_315)"/>
<defs>
<linearGradient id="paint0_linear_664_315" x1="9.99981" y1="0.400269" x2="9.99981" y2="19.6" gradientUnits="userSpaceOnUse">
<stop stop-color="#1670CD"/>
<stop offset="0.0001" stop-color="#105FB1"/>
<stop offset="1" stop-color="#3497FD"/>
</linearGradient>
</defs>
</svg>
