<svg width="20" height="20" viewBox="0 0 20 20" fill="none" xmlns="http://www.w3.org/2000/svg">
<path fill-rule="evenodd" clip-rule="evenodd" d="M11.788 1.80399C11.332 -0.0680061 8.66797 -0.0680061 8.21197 1.80399C8.14389 2.08529 8.01035 2.34654 7.82224 2.56649C7.63412 2.78643 7.39673 2.95885 7.12938 3.06972C6.86204 3.18058 6.5723 3.22677 6.28373 3.2045C5.99517 3.18224 5.71594 3.09216 5.46877 2.94159C3.82237 1.93839 1.93837 3.82239 2.94157 5.46879C3.58957 6.53199 3.01477 7.91919 1.80517 8.21319C-0.0680314 8.66799 -0.0680314 11.3332 1.80517 11.7868C2.08654 11.855 2.34784 11.9886 2.56778 12.1769C2.78772 12.3651 2.96009 12.6027 3.07086 12.8702C3.18162 13.1377 3.22764 13.4275 3.20517 13.7162C3.1827 14.0048 3.09239 14.2841 2.94157 14.5312C1.93837 16.1776 3.82237 18.0616 5.46877 17.0584C5.7159 16.9076 5.99515 16.8173 6.28379 16.7948C6.57243 16.7723 6.8623 16.8183 7.12978 16.9291C7.39727 17.0399 7.63482 17.2122 7.82308 17.4322C8.01135 17.6521 8.145 17.9134 8.21317 18.1948C8.66797 20.068 11.3332 20.068 11.7868 18.1948C11.8552 17.9136 11.989 17.6524 12.1773 17.4327C12.3656 17.2129 12.6031 17.0406 12.8705 16.9299C13.1379 16.8191 13.4276 16.7731 13.7162 16.7954C14.0048 16.8177 14.284 16.9078 14.5312 17.0584C16.1776 18.0616 18.0616 16.1776 17.0584 14.5312C16.9078 14.284 16.8177 14.0048 16.7954 13.7162C16.7731 13.4277 16.8191 13.1379 16.9299 12.8705C17.0406 12.6031 17.2128 12.3656 17.4326 12.1773C17.6524 11.989 17.9135 11.8552 18.1948 11.7868C20.068 11.332 20.068 8.66679 18.1948 8.21319C17.9134 8.14503 17.6521 8.01137 17.4322 7.82311C17.2122 7.63484 17.0398 7.3973 16.9291 7.12981C16.8183 6.86232 16.7723 6.57245 16.7948 6.28381C16.8172 5.99517 16.9076 5.71592 17.0584 5.46879C18.0616 3.82239 16.1776 1.93839 14.5312 2.94159C14.284 3.09241 14.0048 3.18273 13.7161 3.2052C13.4275 3.22766 13.1376 3.18164 12.8702 3.07088C12.6027 2.96012 12.3651 2.78775 12.1769 2.56781C11.9886 2.34786 11.8549 2.08657 11.7868 1.80519L11.788 1.80399ZM9.99997 13.6C10.9547 13.6 11.8704 13.2207 12.5456 12.5456C13.2207 11.8704 13.6 10.9548 13.6 9.99999C13.6 9.04521 13.2207 8.12954 12.5456 7.45441C11.8704 6.77928 10.9547 6.39999 9.99997 6.39999C9.04519 6.39999 8.12951 6.77928 7.45438 7.45441C6.77925 8.12954 6.39997 9.04521 6.39997 9.99999C6.39997 10.9548 6.77925 11.8704 7.45438 12.5456C8.12951 13.2207 9.04519 13.6 9.99997 13.6Z" fill="url(#paint0_linear_664_102)"/>
<defs>
<linearGradient id="paint0_linear_664_102" x1="9.99997" y1="0.399994" x2="9.99997" y2="19.5997" gradientUnits="userSpaceOnUse">
<stop stop-color="#1670CD"/>
<stop offset="0.0001" stop-color="#105FB1"/>
<stop offset="1" stop-color="#3497FD"/>
</linearGradient>
</defs>
</svg>
