<svg width="36" height="36" viewBox="0 0 36 36" fill="none" xmlns="http://www.w3.org/2000/svg">
<rect width="36" height="36" rx="18" fill="url(#paint0_linear_111_674)"/>
<path d="M10.9882 14.3215C10.6756 14.634 10.5 15.058 10.5 15.5V23C10.5 23.442 10.6756 23.8659 10.9882 24.1785C11.3007 24.4911 11.7246 24.6667 12.1667 24.6667H23.8333C24.2754 24.6667 24.6993 24.4911 25.0118 24.1785C25.3244 23.8659 25.5 23.442 25.5 23V15.5C25.5 15.058 25.3244 14.634 25.0118 14.3215C24.6993 14.0089 24.2754 13.8333 23.8333 13.8333H23.0583C22.784 13.8334 22.5139 13.7657 22.272 13.6363C22.0301 13.5069 21.8239 13.3199 21.6717 13.0917L20.995 12.075C20.8428 11.8468 20.6365 11.6597 20.3946 11.5303C20.1527 11.401 19.8827 11.3333 19.6083 11.3333H16.3917C16.1173 11.3333 15.8473 11.401 15.6054 11.5303C15.3635 11.6597 15.1572 11.8468 15.005 12.075L14.3283 13.0917C14.1761 13.3199 13.9699 13.5069 13.728 13.6363C13.4861 13.7657 13.216 13.8334 12.9417 13.8333H12.1667C11.7246 13.8333 11.3007 14.0089 10.9882 14.3215Z" stroke="white" stroke-width="1.5" stroke-linecap="round" stroke-linejoin="round"/>
<path d="M19.7678 20.6011C20.2366 20.1323 20.5 19.4964 20.5 18.8333C20.5 18.1703 20.2366 17.5344 19.7678 17.0656C19.2989 16.5967 18.663 16.3333 18 16.3333C17.337 16.3333 16.7011 16.5967 16.2322 17.0656C15.7634 17.5344 15.5 18.1703 15.5 18.8333C15.5 19.4964 15.7634 20.1323 16.2322 20.6011C16.7011 21.0699 17.337 21.3333 18 21.3333C18.663 21.3333 19.2989 21.0699 19.7678 20.6011Z" stroke="white" stroke-width="1.5" stroke-linecap="round" stroke-linejoin="round"/>
<defs>
<linearGradient id="paint0_linear_111_674" x1="18" y1="0" x2="18" y2="36" gradientUnits="userSpaceOnUse">
<stop stop-color="#1670CD"/>
<stop offset="0.0001" stop-color="#105FB1"/>
<stop offset="1" stop-color="#3497FD"/>
</linearGradient>
</defs>
</svg>
