<svg width="19" height="18" viewBox="0 0 19 18" fill="none" xmlns="http://www.w3.org/2000/svg">
<rect width="19" height="18" rx="9" fill="url(#paint0_linear_571_1037)"/>
<path d="M10.0526 5.72727L9.96023 10.9084H8.97656L8.88423 5.72727H10.0526ZM9.47017 13.0675C9.27367 13.0675 9.10559 12.9988 8.96591 12.8615C8.82623 12.7218 8.75758 12.5537 8.75994 12.3572C8.75758 12.1631 8.82623 11.9974 8.96591 11.8601C9.10559 11.7204 9.27367 11.6506 9.47017 11.6506C9.66193 11.6506 9.82765 11.7204 9.96733 11.8601C10.107 11.9974 10.178 12.1631 10.1804 12.3572C10.178 12.4875 10.1437 12.607 10.0774 12.7159C10.0135 12.8224 9.92827 12.9077 9.82173 12.9716C9.7152 13.0355 9.59801 13.0675 9.47017 13.0675Z" fill="white"/>
<defs>
<linearGradient id="paint0_linear_571_1037" x1="9.5" y1="0" x2="9.5" y2="18" gradientUnits="userSpaceOnUse">
<stop stop-color="#1670CD"/>
<stop offset="0.0001" stop-color="#105FB1"/>
<stop offset="1" stop-color="#3497FD"/>
</linearGradient>
</defs>
</svg>
