<svg width="36" height="36" viewBox="0 0 36 36" fill="none" xmlns="http://www.w3.org/2000/svg">
<rect width="36" height="36" rx="18" fill="url(#paint0_linear_111_671)"/>
<path d="M20.6434 13.8333L15.1551 19.3217C14.9959 19.4754 14.8689 19.6593 14.7816 19.8627C14.6942 20.066 14.6483 20.2847 14.6463 20.506C14.6444 20.7273 14.6866 20.9468 14.7704 21.1516C14.8542 21.3564 14.978 21.5425 15.1344 21.699C15.2909 21.8555 15.477 21.9792 15.6818 22.063C15.8867 22.1468 16.1061 22.189 16.3274 22.1871C16.5487 22.1852 16.7674 22.1392 16.9708 22.0518C17.1741 21.9645 17.358 21.8375 17.5118 21.6783L22.8568 16.19C23.464 15.5613 23.7999 14.7193 23.7923 13.8453C23.7848 12.9713 23.4342 12.1353 22.8162 11.5173C22.1981 10.8992 21.3621 10.5487 20.4881 10.5411C19.6141 10.5335 18.7721 10.8695 18.1434 11.4767L12.7976 16.9642C11.8598 17.9019 11.333 19.1738 11.333 20.5C11.333 21.8262 11.8598 23.0981 12.7976 24.0358C13.7354 24.9736 15.0072 25.5004 16.3334 25.5004C17.6596 25.5004 18.9315 24.9736 19.8693 24.0358L25.0834 18.8333" stroke="white" stroke-width="1.5" stroke-linecap="round" stroke-linejoin="round"/>
<defs>
<linearGradient id="paint0_linear_111_671" x1="18" y1="0" x2="18" y2="36" gradientUnits="userSpaceOnUse">
<stop stop-color="#1670CD"/>
<stop offset="0.0001" stop-color="#105FB1"/>
<stop offset="1" stop-color="#3497FD"/>
</linearGradient>
</defs>
</svg>
