<svg width="185" height="25" viewBox="0 0 185 25" fill="none" xmlns="http://www.w3.org/2000/svg">
<path d="M0.24 24V7.136H4.112L4.176 10.528L3.536 10.784C3.728 10.2293 4.016 9.71733 4.4 9.248C4.784 8.75733 5.24267 8.34133 5.776 8C6.30933 7.63733 6.87467 7.36 7.472 7.168C8.06933 6.95467 8.67733 6.848 9.296 6.848C10.2133 6.848 11.024 6.99733 11.728 7.296C12.4533 7.57333 13.0507 8.02133 13.52 8.64C14.0107 9.25867 14.3733 10.048 14.608 11.008L14 10.88L14.256 10.368C14.4907 9.856 14.8213 9.39733 15.248 8.992C15.6747 8.56533 16.1547 8.192 16.688 7.872C17.2213 7.53067 17.776 7.27467 18.352 7.104C18.9493 6.93333 19.536 6.848 20.112 6.848C21.392 6.848 22.4587 7.104 23.312 7.616C24.1653 8.128 24.8053 8.90667 25.232 9.952C25.6587 10.9973 25.872 12.288 25.872 13.824V24H21.904V14.08C21.904 13.2267 21.7867 12.5227 21.552 11.968C21.3387 11.4133 20.9973 11.008 20.528 10.752C20.08 10.4747 19.5147 10.336 18.832 10.336C18.2987 10.336 17.7867 10.432 17.296 10.624C16.8267 10.7947 16.4213 11.0507 16.08 11.392C15.7387 11.712 15.472 12.0853 15.28 12.512C15.088 12.9387 14.992 13.408 14.992 13.92V24H11.024V14.048C11.024 13.2373 10.9067 12.5653 10.672 12.032C10.4373 11.4773 10.096 11.0613 9.648 10.784C9.2 10.4853 8.656 10.336 8.016 10.336C7.48267 10.336 6.98133 10.432 6.512 10.624C6.04267 10.7947 5.63733 11.04 5.296 11.36C4.95467 11.68 4.688 12.0533 4.496 12.48C4.304 12.9067 4.208 13.376 4.208 13.888V24H0.24ZM35.5855 24.32C33.8148 24.32 32.2468 23.9467 30.8815 23.2C29.5375 22.4533 28.4815 21.44 27.7135 20.16C26.9668 18.8587 26.5935 17.376 26.5935 15.712C26.5935 14.3893 26.8068 13.184 27.2335 12.096C27.6602 11.008 28.2468 10.0693 28.9935 9.28C29.7615 8.46933 30.6682 7.85067 31.7135 7.424C32.7802 6.976 33.9428 6.752 35.2015 6.752C36.3108 6.752 37.3455 6.96533 38.3055 7.392C39.2655 7.81867 40.0975 8.40533 40.8015 9.152C41.5055 9.87733 42.0388 10.752 42.4015 11.776C42.7855 12.7787 42.9668 13.8773 42.9455 15.072L42.9135 16.448H29.2495L28.5135 13.76H39.6175L39.1055 14.304V13.6C39.0415 12.9387 38.8282 12.3627 38.4655 11.872C38.1028 11.36 37.6335 10.9653 37.0575 10.688C36.5028 10.3893 35.8842 10.24 35.2015 10.24C34.1562 10.24 33.2708 10.4427 32.5455 10.848C31.8415 11.2533 31.3082 11.84 30.9455 12.608C30.5828 13.3547 30.4015 14.2933 30.4015 15.424C30.4015 16.512 30.6255 17.4613 31.0735 18.272C31.5428 19.0827 32.1935 19.712 33.0255 20.16C33.8788 20.5867 34.8708 20.8 36.0015 20.8C36.7908 20.8 37.5162 20.672 38.1775 20.416C38.8388 20.16 39.5535 19.7013 40.3215 19.04L42.2735 21.76C41.6975 22.2933 41.0362 22.752 40.2895 23.136C39.5642 23.4987 38.7962 23.7867 37.9855 24C37.1748 24.2133 36.3748 24.32 35.5855 24.32ZM43.8075 24V7.136H47.6795L47.7435 10.528L47.1035 10.784C47.2955 10.2293 47.5835 9.71733 47.9675 9.248C48.3515 8.75733 48.8102 8.34133 49.3435 8C49.8768 7.63733 50.4422 7.36 51.0395 7.168C51.6368 6.95467 52.2448 6.848 52.8635 6.848C53.7808 6.848 54.5915 6.99733 55.2955 7.296C56.0208 7.57333 56.6182 8.02133 57.0875 8.64C57.5782 9.25867 57.9408 10.048 58.1755 11.008L57.5675 10.88L57.8235 10.368C58.0582 9.856 58.3888 9.39733 58.8155 8.992C59.2422 8.56533 59.7222 8.192 60.2555 7.872C60.7888 7.53067 61.3435 7.27467 61.9195 7.104C62.5168 6.93333 63.1035 6.848 63.6795 6.848C64.9595 6.848 66.0262 7.104 66.8795 7.616C67.7328 8.128 68.3728 8.90667 68.7995 9.952C69.2262 10.9973 69.4395 12.288 69.4395 13.824V24H65.4715V14.08C65.4715 13.2267 65.3542 12.5227 65.1195 11.968C64.9062 11.4133 64.5648 11.008 64.0955 10.752C63.6475 10.4747 63.0822 10.336 62.3995 10.336C61.8662 10.336 61.3542 10.432 60.8635 10.624C60.3942 10.7947 59.9888 11.0507 59.6475 11.392C59.3062 11.712 59.0395 12.0853 58.8475 12.512C58.6555 12.9387 58.5595 13.408 58.5595 13.92V24H54.5915V14.048C54.5915 13.2373 54.4742 12.5653 54.2395 12.032C54.0048 11.4773 53.6635 11.0613 53.2155 10.784C52.7675 10.4853 52.2235 10.336 51.5835 10.336C51.0502 10.336 50.5488 10.432 50.0795 10.624C49.6102 10.7947 49.2048 11.04 48.8635 11.36C48.5222 11.68 48.2555 12.0533 48.0635 12.48C47.8715 12.9067 47.7755 13.376 47.7755 13.888V24H43.8075ZM79.153 24.32C77.3823 24.32 75.8143 23.9467 74.449 23.2C73.105 22.4533 72.049 21.44 71.281 20.16C70.5343 18.8587 70.161 17.376 70.161 15.712C70.161 14.3893 70.3743 13.184 70.801 12.096C71.2277 11.008 71.8143 10.0693 72.561 9.28C73.329 8.46933 74.2357 7.85067 75.281 7.424C76.3477 6.976 77.5103 6.752 78.769 6.752C79.8783 6.752 80.913 6.96533 81.873 7.392C82.833 7.81867 83.665 8.40533 84.369 9.152C85.073 9.87733 85.6063 10.752 85.969 11.776C86.353 12.7787 86.5343 13.8773 86.513 15.072L86.481 16.448H72.817L72.081 13.76H83.185L82.673 14.304V13.6C82.609 12.9387 82.3957 12.3627 82.033 11.872C81.6703 11.36 81.201 10.9653 80.625 10.688C80.0703 10.3893 79.4517 10.24 78.769 10.24C77.7237 10.24 76.8383 10.4427 76.113 10.848C75.409 11.2533 74.8757 11.84 74.513 12.608C74.1503 13.3547 73.969 14.2933 73.969 15.424C73.969 16.512 74.193 17.4613 74.641 18.272C75.1103 19.0827 75.761 19.712 76.593 20.16C77.4463 20.5867 78.4383 20.8 79.569 20.8C80.3583 20.8 81.0837 20.672 81.745 20.416C82.4063 20.16 83.121 19.7013 83.889 19.04L85.841 21.76C85.265 22.2933 84.6037 22.752 83.857 23.136C83.1317 23.4987 82.3637 23.7867 81.553 24C80.7423 24.2133 79.9423 24.32 79.153 24.32Z" fill="url(#paint0_linear_326_892)"/>
<path d="M88.975 24V5.632C88.975 4.608 89.199 3.70133 89.647 2.912C90.095 2.10133 90.7137 1.472 91.503 1.024C92.2923 0.554666 93.2097 0.32 94.255 0.32C94.9803 0.32 95.6523 0.447999 96.271 0.703999C96.8897 0.938666 97.4123 1.26933 97.839 1.696L96.623 4.672C96.3457 4.43733 96.047 4.256 95.727 4.128C95.4283 4 95.1403 3.936 94.863 3.936C94.4363 3.936 94.0737 4.01067 93.775 4.16C93.4977 4.288 93.2843 4.49067 93.135 4.768C93.007 5.04533 92.943 5.376 92.943 5.76V24H90.959C90.575 24 90.2123 24 89.871 24C89.551 24 89.2523 24 88.975 24ZM86.351 10.944V7.488H96.751V10.944H86.351ZM100.047 24V0.32H104.015V24H100.047ZM112.153 24.32C110.767 24.32 109.508 23.936 108.377 23.168C107.247 22.4 106.34 21.3547 105.657 20.032C104.975 18.7093 104.633 17.2053 104.633 15.52C104.633 13.8347 104.975 12.3307 105.657 11.008C106.34 9.68533 107.268 8.65067 108.441 7.904C109.615 7.15733 110.937 6.784 112.409 6.784C113.263 6.784 114.041 6.912 114.745 7.168C115.449 7.40267 116.068 7.744 116.601 8.192C117.135 8.64 117.572 9.152 117.913 9.728C118.276 10.304 118.521 10.9227 118.649 11.584L117.785 11.36V7.136H121.753V24H117.753V19.968L118.681 19.808C118.532 20.384 118.255 20.9493 117.849 21.504C117.465 22.0373 116.975 22.5173 116.377 22.944C115.801 23.3493 115.151 23.68 114.425 23.936C113.721 24.192 112.964 24.32 112.153 24.32ZM113.241 20.832C114.159 20.832 114.969 20.608 115.673 20.16C116.377 19.712 116.921 19.0933 117.305 18.304C117.711 17.4933 117.913 16.5653 117.913 15.52C117.913 14.496 117.711 13.5893 117.305 12.8C116.921 12.0107 116.377 11.392 115.673 10.944C114.969 10.496 114.159 10.272 113.241 10.272C112.324 10.272 111.513 10.496 110.809 10.944C110.127 11.392 109.593 12.0107 109.209 12.8C108.825 13.5893 108.633 14.496 108.633 15.52C108.633 16.5653 108.825 17.4933 109.209 18.304C109.593 19.0933 110.127 19.712 110.809 20.16C111.513 20.608 112.324 20.832 113.241 20.832ZM128.789 24L121.685 7.136H125.973L130.773 19.744L129.941 19.968L134.998 7.136H139.19L131.733 24H128.789ZM146.752 24.32C145.067 24.32 143.563 23.9467 142.24 23.2C140.918 22.432 139.872 21.3867 139.104 20.064C138.336 18.7413 137.952 17.2373 137.952 15.552C137.952 13.8667 138.336 12.3627 139.104 11.04C139.872 9.71733 140.918 8.68267 142.24 7.936C143.563 7.168 145.067 6.784 146.752 6.784C148.416 6.784 149.91 7.168 151.232 7.936C152.555 8.68267 153.59 9.71733 154.336 11.04C155.104 12.3627 155.488 13.8667 155.488 15.552C155.488 17.2373 155.104 18.7413 154.336 20.064C153.59 21.3867 152.555 22.432 151.232 23.2C149.91 23.9467 148.416 24.32 146.752 24.32ZM146.752 20.832C147.67 20.832 148.48 20.5973 149.184 20.128C149.91 19.6587 150.475 19.0293 150.88 18.24C151.307 17.4507 151.51 16.5547 151.488 15.552C151.51 14.528 151.307 13.6213 150.88 12.832C150.475 12.0427 149.91 11.424 149.184 10.976C148.48 10.5067 147.67 10.272 146.752 10.272C145.835 10.272 145.003 10.5067 144.256 10.976C143.531 11.424 142.966 12.0533 142.56 12.864C142.155 13.6533 141.952 14.5493 141.952 15.552C141.952 16.5547 142.155 17.4507 142.56 18.24C142.966 19.0293 143.531 19.6587 144.256 20.128C145.003 20.5973 145.835 20.832 146.752 20.832ZM162.305 24.32C161.089 24.32 160.033 24.0533 159.137 23.52C158.241 22.9653 157.558 22.1867 157.089 21.184C156.62 20.16 156.385 18.944 156.385 17.536V7.136H160.321V16.704C160.321 17.6 160.46 18.368 160.737 19.008C161.014 19.6267 161.42 20.1067 161.953 20.448C162.486 20.7893 163.126 20.96 163.873 20.96C164.428 20.96 164.929 20.8747 165.377 20.704C165.846 20.512 166.252 20.256 166.593 19.936C166.934 19.5947 167.201 19.2 167.393 18.752C167.585 18.2827 167.681 17.7813 167.681 17.248V7.136H171.617V24H167.777L167.713 20.48L168.417 20.096C168.161 20.9067 167.724 21.632 167.105 22.272C166.508 22.8907 165.793 23.392 164.961 23.776C164.129 24.1387 163.244 24.32 162.305 24.32ZM173.67 24V7.136H177.542L177.606 12.512L177.062 11.296C177.297 10.4427 177.702 9.67467 178.278 8.992C178.854 8.30933 179.516 7.776 180.262 7.392C181.03 6.98667 181.83 6.784 182.662 6.784C183.025 6.784 183.366 6.816 183.686 6.88C184.028 6.944 184.305 7.01867 184.518 7.104L183.462 11.424C183.228 11.296 182.94 11.1893 182.598 11.104C182.257 11.0187 181.916 10.976 181.574 10.976C181.041 10.976 180.529 11.0827 180.038 11.296C179.569 11.488 179.153 11.7653 178.79 12.128C178.428 12.4907 178.14 12.9173 177.926 13.408C177.734 13.8773 177.638 14.4107 177.638 15.008V24H173.67Z" fill="#414249"/>
<defs>
<linearGradient id="paint0_linear_326_892" x1="44.4596" y1="-1.4817e-07" x2="44.4596" y2="28" gradientUnits="userSpaceOnUse">
<stop stop-color="#007991"/>
<stop offset="1" stop-color="#78FFD6"/>
</linearGradient>
</defs>
</svg>
