<svg width="18" height="17" viewBox="0 0 18 17" fill="none" xmlns="http://www.w3.org/2000/svg">
<path d="M6.5 5.16667H11.5M7.33333 5.16667C7.66164 5.16667 7.98673 5.23133 8.29004 5.35697C8.59336 5.4826 8.86895 5.66675 9.1011 5.8989C9.33325 6.13105 9.5174 6.40664 9.64303 6.70996C9.76867 7.01327 9.83333 7.33836 9.83333 7.66667C9.83333 7.99497 9.76867 8.32006 9.64303 8.62338C9.5174 8.92669 9.33325 9.20229 9.1011 9.43443C8.86895 9.66658 8.59336 9.85073 8.29004 9.97637C7.98673 10.102 7.66164 10.1667 7.33333 10.1667H6.5L9 12.6667M6.5 7.66667H11.5M16.5 8.5C16.5 9.48491 16.306 10.4602 15.9291 11.3701C15.5522 12.2801 14.9997 13.1069 14.3033 13.8033C13.6069 14.4997 12.7801 15.0522 11.8701 15.4291C10.9602 15.806 9.98491 16 9 16C8.01509 16 7.03982 15.806 6.12987 15.4291C5.21993 15.0522 4.39314 14.4997 3.6967 13.8033C3.00026 13.1069 2.44781 12.2801 2.0709 11.3701C1.69399 10.4602 1.5 9.48491 1.5 8.5C1.5 6.51088 2.29018 4.60322 3.6967 3.1967C5.10322 1.79018 7.01088 1 9 1C10.9891 1 12.8968 1.79018 14.3033 3.1967C15.7098 4.60322 16.5 6.51088 16.5 8.5Z" stroke="#414249" stroke-width="1.5" stroke-linecap="round" stroke-linejoin="round"/>
</svg>
