<svg width="18" height="17" viewBox="0 0 18 17" fill="none" xmlns="http://www.w3.org/2000/svg">
<path d="M14.3033 3.19667L11.3567 6.14333M14.3033 3.19667C12.8968 1.79014 10.9891 1 9 1C7.01088 1 5.10319 1.79014 3.69667 3.19667M14.3033 3.19667C15.7099 4.60319 16.5 6.51088 16.5 8.5C16.5 9.48491 16.306 10.4602 15.9291 11.3701C15.5522 12.2801 14.9998 13.1069 14.3033 13.8033M11.3567 6.14333C10.7315 5.51821 9.88405 5.16667 9 5.16667C8.11594 5.16667 7.26845 5.51821 6.64333 6.14333M11.3567 6.14333C11.9818 6.76845 12.3333 7.61594 12.3333 8.5C12.3333 9.38405 11.9818 10.2315 11.3567 10.8567M11.3567 10.8567L14.3033 13.8033M11.3567 10.8567C10.7315 11.4818 9.88405 11.8333 9 11.8333C8.11594 11.8333 7.26845 11.4818 6.64333 10.8567M14.3033 13.8033C13.6069 14.4998 12.7801 15.0522 11.8701 15.4291C10.9602 15.806 9.98491 16 9 16C8.01509 16 7.03982 15.806 6.12987 15.4291C5.21993 15.0522 4.39311 14.4998 3.69667 13.8033M6.64333 6.14333L3.69667 3.19667M6.64333 6.14333C6.01821 6.76845 5.66667 7.61594 5.66667 8.5C5.66667 9.38405 6.01821 10.2315 6.64333 10.8567M3.69667 3.19667C2.29014 4.60319 1.5 6.51088 1.5 8.5C1.5 9.48491 1.69399 10.4602 2.0709 11.3701C2.44781 12.2801 3.00023 13.1069 3.69667 13.8033M6.64333 10.8567L3.69667 13.8033" stroke="#414249" stroke-width="1.5" stroke-linecap="round" stroke-linejoin="round"/>
</svg>
