<svg width="18" height="15" viewBox="0 0 18 15" fill="none" xmlns="http://www.w3.org/2000/svg">
<path d="M13.1667 10.8333L16.5 7.5M16.5 7.5L13.1667 4.16667M16.5 7.5H4.83333M9.83333 10.8333V11.6667C9.83333 12.3297 9.56994 12.9656 9.1011 13.4344C8.63226 13.9033 7.99637 14.1667 7.33333 14.1667H4C3.33696 14.1667 2.70107 13.9033 2.23223 13.4344C1.76339 12.9656 1.5 12.3297 1.5 11.6667V3.33333C1.5 2.67029 1.76339 2.03441 2.23223 1.56557C2.70107 1.09673 3.33696 0.833334 4 0.833334H7.33333C7.99637 0.833334 8.63226 1.09673 9.1011 1.56557C9.56994 2.03441 9.83333 2.67029 9.83333 3.33333V4.16667" stroke="#414249" stroke-width="1.5" stroke-linecap="round" stroke-linejoin="round"/>
</svg>
