<svg width="16" height="15" viewBox="0 0 16 15" fill="none" xmlns="http://www.w3.org/2000/svg">
<path d="M1.57745 1.07741C1.42117 1.23369 1.33337 1.44565 1.33337 1.66666V3.33333C1.33337 3.55434 1.42117 3.7663 1.57745 3.92258C1.73373 4.07886 1.94569 4.16666 2.16671 4.16666H13.8334C14.0544 4.16666 14.2663 4.07886 14.4226 3.92258C14.5789 3.7663 14.6667 3.55434 14.6667 3.33333V1.66666C14.6667 1.44565 14.5789 1.23369 14.4226 1.07741C14.2663 0.921126 14.0544 0.833328 13.8334 0.833328H2.16671C1.94569 0.833328 1.73373 0.921126 1.57745 1.07741Z" stroke="#414249" stroke-width="1.5" stroke-linecap="round" stroke-linejoin="round"/>
<path d="M1.57745 7.74407C1.42117 7.90035 1.33337 8.11231 1.33337 8.33333V13.3333C1.33337 13.5543 1.42117 13.7663 1.57745 13.9226C1.73373 14.0789 1.94569 14.1667 2.16671 14.1667H7.16671C7.38772 14.1667 7.59968 14.0789 7.75596 13.9226C7.91224 13.7663 8.00004 13.5543 8.00004 13.3333V8.33333C8.00004 8.11231 7.91224 7.90035 7.75596 7.74407C7.59968 7.58779 7.38772 7.49999 7.16671 7.49999H2.16671C1.94569 7.49999 1.73373 7.58779 1.57745 7.74407Z" stroke="#414249" stroke-width="1.5" stroke-linecap="round" stroke-linejoin="round"/>
<path d="M11.5775 7.74407C11.4212 7.90035 11.3334 8.11231 11.3334 8.33333V13.3333C11.3334 13.5543 11.4212 13.7663 11.5775 13.9226C11.7337 14.0789 11.9457 14.1667 12.1667 14.1667H13.8334C14.0544 14.1667 14.2663 14.0789 14.4226 13.9226C14.5789 13.7663 14.6667 13.5543 14.6667 13.3333V8.33333C14.6667 8.11231 14.5789 7.90035 14.4226 7.74407C14.2663 7.58779 14.0544 7.49999 13.8334 7.49999H12.1667C11.9457 7.49999 11.7337 7.58779 11.5775 7.74407Z" stroke="#414249" stroke-width="1.5" stroke-linecap="round" stroke-linejoin="round"/>
</svg>
